<?xml version="1.0" encoding="utf-8"?>
<!-- Generator: Adobe Illustrator 27.4.1, SVG Export Plug-In . SVG Version: 6.00 Build 0)  -->
<svg version="1.1" id="Layer_1" xmlns="http://www.w3.org/2000/svg" xmlns:xlink="http://www.w3.org/1999/xlink" x="0px" y="0px"
	 viewBox="0 0 828 412" style="enable-background:new 0 0 828 412;" xml:space="preserve">
<style type="text/css">
	.st0{fill:#CBC8CD;}
	.st1{fill:#CACACA;}
	.st2{fill:none;stroke:#CBC8CD;stroke-width:3;stroke-miterlimit:10;}
</style>
<g>
	<path class="st0" d="M291.5,51.64V-0.08h11.16V51.4c0,16.08,9.84,24.36,21.96,24.36s21.96-8.28,21.96-24.36V-0.08h11.16v51.72
		c0,21.96-14.4,34.08-33.12,34.08S291.5,73.6,291.5,51.64z"/>
	<path class="st0" d="M368.95-0.08h35.88c16.8,0,28.92,9.48,28.92,25.44s-12.12,24.96-28.92,24.96h-24.72v33.6h-11.16V-0.08z
		 M403.51,40.36c11.52,0,18.6-5.64,18.6-15s-7.08-15.48-18.6-15.48h-23.4v30.48H403.51z"/>
	<path class="st0" d="M487.94,73.96v9.96h-49.56v-84h11.16v74.04H487.94z"/>
	<path class="st0" d="M483.56,41.92c0-28.08,19.08-43.8,41.04-43.8s41.04,15.72,41.04,43.8c0,28.08-19.08,43.8-41.04,43.8
		S483.56,70,483.56,41.92z M524.6,75.76c16.2,0,29.4-11.28,29.4-33.84c0-22.56-13.2-33.84-29.4-33.84s-29.4,11.28-29.4,33.84
		C495.2,64.48,508.4,75.76,524.6,75.76z"/>
	<path class="st0" d="M592.35-0.08h11.4l31.56,84h-11.76l-7.92-22.44h-35.16l-7.92,22.44h-11.76L592.35-0.08z M612.03,51.64
		l-5.76-16.32c-2.76-7.68-5.4-15.36-8.16-23.04h-0.12c-2.76,7.68-5.4,15.36-8.16,23.04l-5.76,16.32H612.03z"/>
	<path class="st0" d="M638.59-0.08h30.96c23.52,0,41.04,15.12,41.04,42s-17.52,42-41.04,42h-30.96V-0.08z M669.55,73.96
		c16.56,0,29.4-10.92,29.4-32.04c0-21.36-12.84-32.04-29.4-32.04h-19.8v64.08H669.55z"/>
</g>
<g>
	<path class="st0" d="M441.57,159.01l-28.92-50.64h12.6l21.84,40.68h0.24l21.84-40.68h12.6l-29.04,50.64v33.36h-11.16V159.01z"/>
	<path class="st0" d="M474.61,150.37c0-28.08,19.08-43.8,41.04-43.8c21.96,0,41.04,15.72,41.04,43.8c0,28.08-19.08,43.8-41.04,43.8
		C493.69,194.17,474.61,178.45,474.61,150.37z M515.65,184.21c16.2,0,29.4-11.28,29.4-33.84c0-22.56-13.2-33.84-29.4-33.84
		c-16.2,0-29.4,11.28-29.4,33.84C486.25,172.93,499.45,184.21,515.65,184.21z"/>
	<path class="st0" d="M563.29,160.09v-51.72h11.16v51.48c0,16.08,9.84,24.36,21.96,24.36c12.12,0,21.96-8.28,21.96-24.36v-51.48
		h11.16v51.72c0,21.96-14.4,34.08-33.12,34.08C577.69,194.17,563.29,182.05,563.29,160.09z"/>
	<path class="st0" d="M640.73,108.37h32.28c19.2,0,30.12,9.36,30.12,23.04c0,10.8-6.84,18.72-18.96,21.12v0.24
		c10.08,3.96,13.8,11.64,16.68,22.2l4.8,17.4h-11.52l-3.96-14.64c-4.32-16.08-8.76-20.04-23.28-20.04h-15v34.68h-11.16V108.37z
		 M667.49,147.85c15.6,0,24-5.4,24-15.48c0-8.88-6.6-14.04-18.6-14.04h-21v29.52H667.49z"/>
</g>
<g>
	<g>
		<g>
			<path class="st0" d="M257.55,14.85c-1.38,0.16-2.62,0.6-3.72,1.31c-1.11,0.71-1.97,1.61-2.6,2.7c-0.63,1.09-0.95,2.24-0.95,3.45
				h-2.41c0-1.24,0.23-2.38,0.7-3.4c0.47-1.02,1.19-1.92,2.16-2.69c0.97-0.77,2.2-1.38,3.67-1.82l0.2,0.52l-17.1,0.15v-2.6
				l17.1,0.15l-0.2,0.52c-1.47-0.44-2.7-1.05-3.67-1.82c-0.97-0.77-1.7-1.67-2.16-2.69c-0.47-1.02-0.7-2.16-0.7-3.4l2.41,0
				c0,1.21,0.32,2.36,0.95,3.45c0.63,1.09,1.5,1.99,2.6,2.7c1.11,0.71,2.35,1.15,3.72,1.31V14.85z"/>
		</g>
		<g>
			<path class="st0" d="M235.19,25.15c-0.98-1-1.81-2.08-2.49-3.26c-0.68-1.17-1.2-2.4-1.55-3.7c-0.35-1.29-0.53-2.64-0.53-4.03
				c0-1.39,0.17-2.72,0.5-3.99c0.34-1.27,0.83-2.48,1.47-3.62c0.65-1.15,1.45-2.22,2.4-3.22c0.03-0.03,0.07-0.06,0.1-0.09
				c0.03-0.02,0.07-0.05,0.1-0.09h2.16c-0.11,0.11-0.23,0.24-0.34,0.37c-0.11,0.13-0.22,0.27-0.32,0.42
				c-0.82,0.97-1.5,1.99-2.04,3.08c-0.54,1.09-0.95,2.23-1.23,3.42c-0.28,1.19-0.42,2.43-0.42,3.72c0,1.47,0.18,2.86,0.53,4.16
				c0.35,1.3,0.85,2.52,1.5,3.65c0.65,1.13,1.43,2.19,2.35,3.17H235.19z"/>
		</g>
		<g>
			<path class="st0" d="M257.99,25.15c0.92-0.98,1.7-2.04,2.35-3.17c0.65-1.13,1.15-2.35,1.5-3.65c0.35-1.3,0.53-2.69,0.53-4.16
				c0-1.29-0.14-2.53-0.42-3.72c-0.28-1.19-0.69-2.33-1.23-3.42c-0.54-1.09-1.22-2.12-2.04-3.08c-0.1-0.15-0.2-0.29-0.32-0.42
				c-0.11-0.13-0.23-0.25-0.34-0.37h2.16c0.03,0.03,0.07,0.06,0.1,0.09c0.03,0.02,0.07,0.05,0.1,0.09c0.95,1,1.75,2.07,2.4,3.22
				c0.65,1.15,1.14,2.35,1.47,3.62c0.34,1.27,0.5,2.6,0.5,3.99c0,1.39-0.18,2.74-0.53,4.03c-0.35,1.29-0.87,2.53-1.55,3.7
				c-0.68,1.17-1.51,2.26-2.49,3.26H257.99z"/>
		</g>
	</g>
</g>
<g>
	<path class="st0" d="M126.65,222.82h57.72v9.96h-46.44v27h41.76v9.96h-41.76v37.08h-11.28V222.82z"/>
	<path class="st0" d="M187.58,274.54v-51.72h11.16v51.48c0,16.08,9.84,24.36,21.96,24.36c12.12,0,21.96-8.28,21.96-24.36v-51.48
		h11.16v51.72c0,21.96-14.4,34.08-33.12,34.08C201.98,308.62,187.58,296.5,187.58,274.54z"/>
	<path class="st0" d="M285.91,232.54h-28.8v-9.72h68.76v9.72h-28.8v74.28h-11.16V232.54z"/>
	<path class="st0" d="M329.16,274.54v-51.72h11.16v51.48c0,16.08,9.84,24.36,21.96,24.36s21.96-8.28,21.96-24.36v-51.48h11.16v51.72
		c0,21.96-14.4,34.08-33.12,34.08C343.56,308.62,329.16,296.5,329.16,274.54z"/>
	<path class="st0" d="M406.6,222.82h32.28c19.2,0,30.12,9.36,30.12,23.04c0,10.8-6.84,18.72-18.96,21.12v0.24
		c10.08,3.96,13.8,11.64,16.68,22.2l4.8,17.4H460l-3.96-14.64c-4.32-16.08-8.76-20.04-23.28-20.04h-15v34.68H406.6V222.82z
		 M433.36,262.3c15.6,0,24-5.4,24-15.48c0-8.88-6.6-14.04-18.6-14.04h-21v29.52H433.36z"/>
	<path class="st0" d="M476.71,222.82h57.72v9.96h-46.44v27h41.76v9.96h-41.76v27.12h46.56v9.96h-57.84V222.82z"/>
	<path class="st0" d="M176.2,402.44v9.96h-49.56v-84h11.16v74.04H176.2z"/>
	<path class="st0" d="M179.42,328.41h11.16v84h-11.16V328.41z"/>
	<path class="st0" d="M201.79,328.41h57.72v9.96h-46.44v27h41.76v9.96h-41.76v37.08h-11.28V328.41z"/>
	<path class="st0" d="M262.72,328.41h57.72v9.96H274v27h41.76v9.96H274v27.12h46.56v9.96h-57.84V328.41z"/>
</g>
<g>
	<g>
		<path class="st0" d="M370.37,340.74c-1.39,0.17-2.64,0.61-3.76,1.33c-1.12,0.72-1.99,1.63-2.63,2.73
			c-0.64,1.1-0.95,2.26-0.95,3.48h-2.43c0-1.26,0.24-2.4,0.71-3.44c0.47-1.03,1.2-1.94,2.18-2.72c0.98-0.78,2.22-1.39,3.71-1.84
			l0.2,0.52l-17.26,0.15v-2.63l17.26,0.15l-0.2,0.52c-1.49-0.45-2.72-1.06-3.71-1.84c-0.98-0.78-1.71-1.68-2.18-2.72
			c-0.47-1.03-0.71-2.18-0.71-3.44h2.43c0,1.22,0.32,2.39,0.95,3.48c0.64,1.1,1.51,2.01,2.63,2.73c1.12,0.72,2.37,1.16,3.76,1.33
			V340.74z"/>
	</g>
	<g>
		<path class="st0" d="M347.8,351.13c-0.99-1.01-1.83-2.1-2.52-3.29c-0.69-1.18-1.21-2.43-1.56-3.73c-0.36-1.31-0.53-2.66-0.53-4.07
			c0-1.41,0.17-2.75,0.51-4.03c0.34-1.28,0.83-2.5,1.49-3.66c0.65-1.16,1.46-2.24,2.42-3.25c0.03-0.03,0.07-0.06,0.1-0.09
			c0.03-0.02,0.07-0.05,0.1-0.09h2.18c-0.12,0.12-0.23,0.24-0.35,0.37c-0.12,0.13-0.22,0.27-0.32,0.42
			c-0.83,0.98-1.51,2.01-2.06,3.11c-0.55,1.1-0.96,2.25-1.24,3.45c-0.28,1.2-0.42,2.45-0.42,3.76c0,1.49,0.18,2.89,0.53,4.2
			c0.36,1.31,0.86,2.54,1.51,3.68c0.65,1.14,1.44,2.21,2.37,3.2H347.8z"/>
	</g>
	<g>
		<path class="st0" d="M370.82,351.13c0.93-0.99,1.72-2.06,2.37-3.2c0.65-1.14,1.16-2.37,1.51-3.68c0.36-1.31,0.53-2.72,0.53-4.2
			c0-1.31-0.14-2.56-0.42-3.76c-0.28-1.2-0.69-2.35-1.24-3.45c-0.55-1.1-1.23-2.14-2.06-3.11c-0.1-0.15-0.21-0.29-0.32-0.42
			c-0.12-0.13-0.23-0.26-0.35-0.37h2.18c0.03,0.03,0.07,0.06,0.1,0.09c0.03,0.02,0.07,0.05,0.1,0.09c0.96,1.01,1.77,2.09,2.42,3.25
			c0.65,1.16,1.15,2.38,1.49,3.66c0.34,1.28,0.51,2.63,0.51,4.03c0,1.41-0.18,2.76-0.53,4.07c-0.36,1.31-0.88,2.55-1.56,3.73
			c-0.69,1.18-1.53,2.28-2.52,3.29H370.82z"/>
	</g>
</g>
</svg>
