<?xml version="1.0" encoding="utf-8"?>
<!-- Generator: Adobe Illustrator 27.4.1, SVG Export Plug-In . SVG Version: 6.00 Build 0)  -->
<svg version="1.1" id="Layer_1" xmlns="http://www.w3.org/2000/svg" xmlns:xlink="http://www.w3.org/1999/xlink" x="0px" y="0px"
	 viewBox="0 0 828 1792" style="enable-background:new 0 0 828 1792;" xml:space="preserve">
<style type="text/css">
	.st0{fill:#CBC8CD;}
</style>
<g>
	<path class="st0" d="M291.5,387.64v-51.72h11.16v51.48c0,16.08,9.84,24.36,21.96,24.36s21.96-8.28,21.96-24.36v-51.48h11.16v51.72
		c0,21.96-14.4,34.08-33.12,34.08S291.5,409.6,291.5,387.64z"/>
	<path class="st0" d="M368.95,335.92h35.88c16.8,0,28.92,9.48,28.92,25.44s-12.12,24.96-28.92,24.96h-24.72v33.6h-11.16V335.92z
		 M403.51,376.36c11.52,0,18.6-5.64,18.6-15s-7.08-15.48-18.6-15.48h-23.4v30.48H403.51z"/>
	<path class="st0" d="M487.94,409.96v9.96h-49.56v-84h11.16v74.04H487.94z"/>
	<path class="st0" d="M483.56,377.92c0-28.08,19.08-43.8,41.04-43.8s41.04,15.72,41.04,43.8c0,28.08-19.08,43.8-41.04,43.8
		S483.56,406,483.56,377.92z M524.6,411.76c16.2,0,29.4-11.28,29.4-33.84c0-22.56-13.2-33.84-29.4-33.84s-29.4,11.28-29.4,33.84
		C495.2,400.48,508.4,411.76,524.6,411.76z"/>
	<path class="st0" d="M592.35,335.92h11.4l31.56,84h-11.76l-7.92-22.44h-35.16l-7.92,22.44h-11.76L592.35,335.92z M612.03,387.64
		l-5.76-16.32c-2.76-7.68-5.4-15.36-8.16-23.04h-0.12c-2.76,7.68-5.4,15.36-8.16,23.04l-5.76,16.32H612.03z"/>
	<path class="st0" d="M638.59,335.92h30.96c23.52,0,41.04,15.12,41.04,42s-17.52,42-41.04,42h-30.96V335.92z M669.55,409.96
		c16.56,0,29.4-10.92,29.4-32.04c0-21.36-12.84-32.04-29.4-32.04h-19.8v64.08H669.55z"/>
</g>
<g>
	<path class="st0" d="M441.57,495.01l-28.92-50.64h12.6l21.84,40.68h0.24l21.84-40.68h12.6l-29.04,50.64v33.36h-11.16V495.01z"/>
	<path class="st0" d="M474.61,486.37c0-28.08,19.08-43.8,41.04-43.8c21.96,0,41.04,15.72,41.04,43.8c0,28.08-19.08,43.8-41.04,43.8
		C493.69,530.17,474.61,514.45,474.61,486.37z M515.65,520.21c16.2,0,29.4-11.28,29.4-33.84c0-22.56-13.2-33.84-29.4-33.84
		c-16.2,0-29.4,11.28-29.4,33.84C486.25,508.93,499.45,520.21,515.65,520.21z"/>
	<path class="st0" d="M563.29,496.09v-51.72h11.16v51.48c0,16.08,9.84,24.36,21.96,24.36c12.12,0,21.96-8.28,21.96-24.36v-51.48
		h11.16v51.72c0,21.96-14.4,34.08-33.12,34.08C577.69,530.17,563.29,518.05,563.29,496.09z"/>
	<path class="st0" d="M640.73,444.37h32.28c19.2,0,30.12,9.36,30.12,23.04c0,10.8-6.84,18.72-18.96,21.12v0.24
		c10.08,3.96,13.8,11.64,16.68,22.2l4.8,17.4h-11.52l-3.96-14.64c-4.32-16.08-8.76-20.04-23.28-20.04h-15v34.68h-11.16V444.37z
		 M667.49,483.85c15.6,0,24-5.4,24-15.48c0-8.88-6.6-14.04-18.6-14.04h-21v29.52H667.49z"/>
</g>
<g>
	<g>
		<g>
			<path class="st0" d="M257.55,350.85c-1.38,0.16-2.62,0.6-3.72,1.31c-1.11,0.71-1.97,1.61-2.6,2.7c-0.63,1.09-0.95,2.24-0.95,3.45
				h-2.41c0-1.24,0.23-2.38,0.7-3.4c0.47-1.02,1.19-1.92,2.16-2.69c0.97-0.77,2.2-1.38,3.67-1.82l0.2,0.52l-17.1,0.15v-2.6
				l17.1,0.15l-0.2,0.52c-1.47-0.44-2.7-1.05-3.67-1.82c-0.97-0.77-1.7-1.67-2.16-2.69c-0.47-1.02-0.7-2.16-0.7-3.4h2.41
				c0,1.21,0.32,2.36,0.95,3.45c0.63,1.09,1.5,1.99,2.6,2.7c1.11,0.71,2.35,1.15,3.72,1.31V350.85z"/>
		</g>
		<g>
			<path class="st0" d="M235.19,361.15c-0.98-1-1.81-2.08-2.49-3.26c-0.68-1.17-1.2-2.4-1.55-3.7c-0.35-1.29-0.53-2.64-0.53-4.03
				c0-1.39,0.17-2.72,0.5-3.99c0.34-1.27,0.83-2.48,1.47-3.62c0.65-1.15,1.45-2.22,2.4-3.22c0.03-0.03,0.07-0.06,0.1-0.09
				c0.03-0.02,0.07-0.05,0.1-0.09h2.16c-0.11,0.11-0.23,0.24-0.34,0.37c-0.11,0.13-0.22,0.27-0.32,0.42
				c-0.82,0.97-1.5,1.99-2.04,3.08c-0.54,1.09-0.95,2.23-1.23,3.42c-0.28,1.19-0.42,2.43-0.42,3.72c0,1.47,0.18,2.86,0.53,4.16
				c0.35,1.3,0.85,2.52,1.5,3.65c0.65,1.13,1.43,2.19,2.35,3.17H235.19z"/>
		</g>
		<g>
			<path class="st0" d="M257.99,361.15c0.92-0.98,1.7-2.04,2.35-3.17c0.65-1.13,1.15-2.35,1.5-3.65c0.35-1.3,0.53-2.69,0.53-4.16
				c0-1.29-0.14-2.53-0.42-3.72c-0.28-1.19-0.69-2.33-1.23-3.42c-0.54-1.09-1.22-2.12-2.04-3.08c-0.1-0.15-0.2-0.29-0.32-0.42
				c-0.11-0.13-0.23-0.25-0.34-0.37h2.16c0.03,0.03,0.07,0.06,0.1,0.09c0.03,0.02,0.07,0.05,0.1,0.09c0.95,1,1.75,2.07,2.4,3.22
				c0.65,1.15,1.14,2.35,1.47,3.62c0.34,1.27,0.5,2.6,0.5,3.99c0,1.39-0.18,2.74-0.53,4.03c-0.35,1.29-0.87,2.53-1.55,3.7
				c-0.68,1.17-1.51,2.26-2.49,3.26H257.99z"/>
		</g>
	</g>
</g>
<g>
	<path class="st0" d="M126.65,558.82h57.72v9.96h-46.44v27h41.76v9.96h-41.76v37.08h-11.28V558.82z"/>
	<path class="st0" d="M187.58,610.54v-51.72h11.16v51.48c0,16.08,9.84,24.36,21.96,24.36c12.12,0,21.96-8.28,21.96-24.36v-51.48
		h11.16v51.72c0,21.96-14.4,34.08-33.12,34.08C201.98,644.62,187.58,632.5,187.58,610.54z"/>
	<path class="st0" d="M285.91,568.54h-28.8v-9.72h68.76v9.72h-28.8v74.28h-11.16V568.54z"/>
	<path class="st0" d="M329.16,610.54v-51.72h11.16v51.48c0,16.08,9.84,24.36,21.96,24.36s21.96-8.28,21.96-24.36v-51.48h11.16v51.72
		c0,21.96-14.4,34.08-33.12,34.08C343.56,644.62,329.16,632.5,329.16,610.54z"/>
	<path class="st0" d="M406.6,558.82h32.28c19.2,0,30.12,9.36,30.12,23.04c0,10.8-6.84,18.72-18.96,21.12v0.24
		c10.08,3.96,13.8,11.64,16.68,22.2l4.8,17.4H460l-3.96-14.64c-4.32-16.08-8.76-20.04-23.28-20.04h-15v34.68H406.6V558.82z
		 M433.36,598.3c15.6,0,24-5.4,24-15.48c0-8.88-6.6-14.04-18.6-14.04h-21v29.52H433.36z"/>
	<path class="st0" d="M476.71,558.82h57.72v9.96h-46.44v27h41.76v9.96h-41.76v27.12h46.56v9.96h-57.84V558.82z"/>
	<path class="st0" d="M176.2,738.44v9.96h-49.56v-84h11.16v74.04H176.2z"/>
	<path class="st0" d="M179.42,664.41h11.16v84h-11.16V664.41z"/>
	<path class="st0" d="M201.79,664.41h57.72v9.96h-46.44v27h41.76v9.96h-41.76v37.08h-11.28V664.41z"/>
	<path class="st0" d="M262.72,664.41h57.72v9.96H274v27h41.76v9.96H274v27.12h46.56v9.96h-57.84V664.41z"/>
</g>
<g>
	<g>
		<path class="st0" d="M370.37,676.74c-1.39,0.17-2.64,0.61-3.76,1.33c-1.12,0.72-1.99,1.63-2.63,2.73
			c-0.64,1.1-0.95,2.26-0.95,3.48h-2.43c0-1.26,0.24-2.4,0.71-3.44c0.47-1.03,1.2-1.94,2.18-2.72c0.98-0.78,2.22-1.39,3.71-1.84
			l0.2,0.52l-17.26,0.15v-2.63l17.26,0.15l-0.2,0.52c-1.49-0.45-2.72-1.06-3.71-1.84c-0.98-0.78-1.71-1.68-2.18-2.72
			c-0.47-1.03-0.71-2.18-0.71-3.44h2.43c0,1.22,0.32,2.39,0.95,3.48c0.64,1.1,1.51,2.01,2.63,2.73c1.12,0.72,2.37,1.16,3.76,1.33
			V676.74z"/>
	</g>
	<g>
		<path class="st0" d="M347.8,687.13c-0.99-1.01-1.83-2.1-2.52-3.29c-0.69-1.18-1.21-2.43-1.56-3.73c-0.36-1.31-0.53-2.66-0.53-4.07
			c0-1.41,0.17-2.75,0.51-4.03c0.34-1.28,0.83-2.5,1.49-3.66c0.65-1.16,1.46-2.24,2.42-3.25c0.03-0.03,0.07-0.06,0.1-0.09
			c0.03-0.02,0.07-0.05,0.1-0.09h2.18c-0.12,0.12-0.23,0.24-0.35,0.37c-0.12,0.13-0.22,0.27-0.32,0.42
			c-0.83,0.98-1.51,2.01-2.06,3.11c-0.55,1.1-0.96,2.25-1.24,3.45c-0.28,1.2-0.42,2.45-0.42,3.76c0,1.49,0.18,2.89,0.53,4.2
			c0.36,1.31,0.86,2.54,1.51,3.68c0.65,1.14,1.44,2.21,2.37,3.2H347.8z"/>
	</g>
	<g>
		<path class="st0" d="M370.82,687.13c0.93-0.99,1.72-2.06,2.37-3.2c0.65-1.14,1.16-2.37,1.51-3.68c0.36-1.31,0.53-2.72,0.53-4.2
			c0-1.31-0.14-2.56-0.42-3.76c-0.28-1.2-0.69-2.35-1.24-3.45c-0.55-1.1-1.23-2.14-2.06-3.11c-0.1-0.15-0.21-0.29-0.32-0.42
			c-0.12-0.13-0.23-0.26-0.35-0.37h2.18c0.03,0.03,0.07,0.06,0.1,0.09c0.03,0.02,0.07,0.05,0.1,0.09c0.96,1.01,1.77,2.09,2.42,3.25
			c0.65,1.16,1.15,2.38,1.49,3.66c0.34,1.28,0.51,2.63,0.51,4.03c0,1.41-0.18,2.76-0.53,4.07c-0.36,1.31-0.88,2.55-1.56,3.73
			c-0.69,1.18-1.53,2.28-2.52,3.29H370.82z"/>
	</g>
</g>
<g>
	<g>
		<path class="st0" d="M212.25,1463.25v-14.51h3.88v14.36c0,3.07,2.17,4.5,4.93,4.5c2.73,0,4.96-1.43,4.96-4.5v-14.36h3.88v14.51
			c0,4.93-3.07,7.56-8.84,7.56C215.29,1470.82,212.25,1468.18,212.25,1463.25z"/>
		<path class="st0" d="M233.48,1470.45v-21.71h7.72c4,0,8.87,0.65,8.87,6.73c0,6.02-4.84,6.67-8.9,6.67h-3.81v8.31H233.48z
			 M237.36,1459.04h3.75c2.54,0,5.08-0.16,5.08-3.57c0-3.53-2.54-3.6-5.05-3.6h-3.78V1459.04z"/>
		<path class="st0" d="M251.93,1470.45v-21.71h3.84v18.42h10.88v3.29H251.93z"/>
		<path class="st0" d="M266.79,1459.59c0-6.57,3.81-11.22,10.64-11.22c6.76,0,10.63,4.68,10.63,11.22c0,6.64-3.88,11.22-10.63,11.22
			C270.69,1470.82,266.79,1466.82,266.79,1459.59z M282.38,1465.52c1.05-1.43,1.55-3.5,1.55-5.92c0-2.48-0.56-4.56-1.55-5.92
			c-1.05-1.46-2.7-2.17-4.84-2.17c-2.33,0-4.06,0.81-5.05,2.08c-0.99,1.27-1.58,3.57-1.58,6.01c0,2.64,0.59,4.71,1.46,5.89
			c1.12,1.49,2.95,2.2,5.05,2.2C279.69,1467.69,281.36,1466.97,282.38,1465.52z"/>
		<path class="st0" d="M304.08,1470.45l-2.02-5.71h-8.46l-1.95,5.71h-4.12l8.34-21.71h4.03l8.28,21.71H304.08z M294.75,1461.49h6.17
			l-1.83-5.24c-0.4-1.15-0.93-2.64-1.27-3.94h-0.03c-0.4,1.52-0.78,2.57-1.24,3.94L294.75,1461.49z"/>
		<path class="st0" d="M309.73,1470.45v-21.71h7.72c6.82,0,10.67,4.31,10.67,10.85c0,6.79-4.03,10.85-10.67,10.85H309.73z
			 M313.61,1467.32h3.53c2.54,0,4.37-0.74,5.43-2.14c1.02-1.4,1.43-3.19,1.43-5.58c0-2.42-0.31-4-1.36-5.55
			c-1.05-1.55-3.04-2.17-5.49-2.17h-3.53V1467.32z"/>
		<path class="st0" d="M342.44,1470.45v-9.12l-7.63-12.59h4.43l3.01,5.36c0.34,0.59,1.36,2.57,2.14,4.09
			c0.81-1.49,1.52-2.95,2.17-4.09l3.04-5.36h4.37l-7.66,12.59v9.12H342.44z"/>
		<path class="st0" d="M353,1459.59c0-6.57,3.81-11.22,10.63-11.22c6.76,0,10.64,4.68,10.64,11.22c0,6.64-3.88,11.22-10.64,11.22
			C356.91,1470.82,353,1466.82,353,1459.59z M368.6,1465.52c1.05-1.43,1.55-3.5,1.55-5.92c0-2.48-0.56-4.56-1.55-5.92
			c-1.05-1.46-2.7-2.17-4.84-2.17c-2.33,0-4.06,0.81-5.05,2.08c-0.99,1.27-1.58,3.57-1.58,6.01c0,2.64,0.59,4.71,1.46,5.89
			c1.12,1.49,2.95,2.2,5.05,2.2C365.9,1467.69,367.58,1466.97,368.6,1465.52z"/>
		<path class="st0" d="M376.64,1463.25v-14.51h3.88v14.36c0,3.07,2.17,4.5,4.93,4.5c2.73,0,4.96-1.43,4.96-4.5v-14.36h3.88v14.51
			c0,4.93-3.07,7.56-8.84,7.56C379.68,1470.82,376.64,1468.18,376.64,1463.25z"/>
		<path class="st0" d="M415.21,1470.35l-0.03,0.09h-4.19c-0.68-1.12-0.87-2.11-0.87-4.96c0-2.61-1.21-3.6-4.25-3.6h-4.12v8.56h-3.88
			v-21.71h7.97c4.31,0,8.65,0.78,8.65,6.48c0,2.67-1.4,4.53-3.41,5.33c2.08,0.81,2.88,2.36,2.88,4.68
			C413.97,1467.56,414.18,1468.99,415.21,1470.35z M405.59,1458.79c2.6,0,5.08-0.31,5.08-3.41c0-3.35-2.48-3.5-5.05-3.5h-3.88v6.92
			H405.59z"/>
		<path class="st0" d="M423.88,1470.45v-21.71h14.73v3.22h-10.88v5.92h9.74v3.19h-9.74v9.36H423.88z"/>
		<path class="st0" d="M440.36,1463.25v-14.51h3.88v14.36c0,3.07,2.17,4.5,4.93,4.5c2.73,0,4.96-1.43,4.96-4.5v-14.36H458v14.51
			c0,4.93-3.07,7.56-8.84,7.56C443.4,1470.82,440.36,1468.18,440.36,1463.25z"/>
		<path class="st0" d="M466.58,1470.45v-18.42h-7.04v-3.29h17.98v3.29h-7.07v18.42H466.58z"/>
		<path class="st0" d="M479.07,1463.25v-14.51h3.88v14.36c0,3.07,2.17,4.5,4.93,4.5c2.73,0,4.96-1.43,4.96-4.5v-14.36h3.88v14.51
			c0,4.93-3.07,7.56-8.84,7.56C482.11,1470.82,479.07,1468.18,479.07,1463.25z"/>
		<path class="st0" d="M517.63,1470.35l-0.03,0.09h-4.19c-0.68-1.12-0.87-2.11-0.87-4.96c0-2.61-1.21-3.6-4.25-3.6h-4.12v8.56h-3.88
			v-21.71h7.97c4.31,0,8.65,0.78,8.65,6.48c0,2.67-1.39,4.53-3.41,5.33c2.08,0.81,2.88,2.36,2.88,4.68
			C516.39,1467.56,516.61,1468.99,517.63,1470.35z M508.02,1458.79c2.6,0,5.08-0.31,5.08-3.41c0-3.35-2.48-3.5-5.05-3.5h-3.88v6.92
			H508.02z"/>
		<path class="st0" d="M520.09,1470.45v-21.71h14.73v3.22h-10.85v5.92h9.7v3.19h-9.7v6.14h10.85v3.22H520.09z"/>
		<path class="st0" d="M543.81,1470.45v-21.71h3.84v18.42h10.88v3.29H543.81z"/>
		<path class="st0" d="M560.18,1470.45v-21.71h3.88v21.71H560.18z"/>
		<path class="st0" d="M567.72,1470.45v-21.71h14.73v3.22h-10.88v5.92h9.74v3.19h-9.74v9.36H567.72z"/>
		<path class="st0" d="M584.29,1470.45v-21.71h14.73v3.22h-10.85v5.92h9.7v3.19h-9.7v6.14h10.85v3.22H584.29z"/>
	</g>
</g>
<g>
	<g>
		<path class="st0" d="M326.83,1432.29h-20.81v-2.18h8.5v-18.24h2.3v6.98h8.33v2.14h-8.33v9.12h10.01V1432.29z"/>
		<path class="st0" d="M344.09,1433.51h-0.31l-0.07-1.9c0.98,0.07,2.09,0.07,2.45,0.12c0.31,0,0.43-0.22,0.43-0.5v-3.02h-5.93
			c0.96,0.79,2.14,2.21,2.66,2.98l-1.68,1.15c-0.55-0.82-1.85-2.38-2.86-3.29l1.22-0.84h-3.31v-1.73h9.89v-1.42h-0.14l-0.38,0.02
			c-3.26,0.1-6.36,0.19-8.74,0.24l-0.17-1.66h0.19c1.63,0,3.74-0.02,5.98-0.07v-1.32h-5.28v-6.31h5.28v-1.15h-6.05v-1.42
			c-0.22,0.5-0.48,1.06-0.74,1.58l-0.1,0.22l-0.12,0.22c-0.02,0.02-0.05,0.05-0.05,0.1l-0.12,0.22c-0.26,0.48-0.53,0.96-0.79,1.42
			v16.3h-2.06v-13.03c-0.65,0.84-1.44,1.78-1.87,2.26l-1.58-1.8c2.33-2.3,4.66-5.93,5.86-9.22l2.04,0.6
			c-0.12,0.31-0.26,0.65-0.41,0.96h6v-1.46h1.94v1.46h6.43v1.61h-6.43v1.15h5.57v6.31h-1.44c0.98,0.84,2.18,1.99,2.74,2.69
			l-1.56,0.96c-0.19-0.26-0.5-0.65-0.79-0.96l-1.06,0.02v1.49h3.22v1.73h-3.22v3.1c0,1.01-0.29,1.68-1.06,1.92
			C346.98,1433.49,345.78,1433.51,344.09,1433.51z M343.33,1418.49v-1.25h-3.31v1.25H343.33z M340.01,1421.01l3.31,0.02v-1.32h-3.31
			v1.32V1421.01z M348.73,1418.49v-1.25h-3.46v1.25H348.73z M345.27,1421.01l3.46,0.02v-1.32h-3.46v1.32V1421.01z M345.27,1423.58
			l3-0.1c-0.36-0.34-0.82-0.74-1.18-1.03l0.29-0.17h-2.11V1423.58z"/>
		<path class="st0" d="M360.63,1433.47h-2.06v-13.06c-0.65,0.86-1.44,1.78-1.87,2.26l-1.58-1.78c2.33-2.3,4.63-5.93,5.86-9.22
			l2.04,0.6c-0.62,1.61-1.51,3.34-2.38,4.87V1433.47z M366.58,1433.51l-0.17-2.16c0.7,0.02,1.75,0.02,2.04,0
			c0.31,0,0.31-0.14,0.31-0.48v-13.01h-3.05l-0.12,0.22c-0.62,1.37-1.25,2.71-1.94,3.65l-1.78-1.42c1.68-1.97,2.95-5.47,3.72-8.64
			l2.11,0.46c-0.31,1.25-0.74,2.57-1.2,3.74h8.79l0.41-0.07l1.51,0.31c-0.29,1.75-0.79,3.89-1.08,5.16l-1.82-0.36
			c0.14-0.6,0.29-1.51,0.41-2.4l0.02-0.26c0.02-0.14,0.05-0.26,0.05-0.38h-3.94v13.01c0,1.08-0.07,1.85-0.77,2.21
			C369.42,1433.42,368.31,1433.51,366.58,1433.51z M363.87,1430.25l-1.63-1.2c1.32-1.66,2.28-4.7,2.83-7.3l2.11,0.38
			C366.51,1425.04,365.21,1428.4,363.87,1430.25z M374.89,1430.18c-0.31-2.02-1.51-5.66-2.69-8.02l1.97-0.62
			c1.22,2.33,2.47,5.86,2.83,7.9L374.89,1430.18z"/>
		<path class="st0" d="M394.15,1433.35l-0.07-2.02c1.03,0.07,2.35,0.14,2.86,0.14c0.46,0,0.77-0.14,1.06-0.46
			c0.7-0.77,1.22-5.06,1.56-13.56h-6.48c-0.7,1.42-1.66,2.9-2.52,3.91c-0.19-0.17-0.48-0.46-0.79-0.72v9.41h-7.9v-14.64h2.45
			c0.38-1.13,0.86-2.76,1.03-3.89l2.42,0.41c-0.41,1.13-0.96,2.47-1.37,3.48h3.36v3.24c1.37-1.85,2.54-4.61,3.19-7.18l2.14,0.48
			c-0.29,1.15-0.72,2.4-1.15,3.5h7.73c0,0,0,0.74-0.02,1.03c-0.41,10.08-0.89,14.64-1.82,15.77c-0.55,0.74-1.13,1.01-1.97,1.1
			C397.08,1433.47,395.68,1433.44,394.15,1433.35z M387.81,1421.34v-4.03h-3.91v4.03H387.81z M387.81,1428.09v-4.82h-3.91v4.82
			H387.81z M397.68,1424.37h-6.53v-1.9h6.53V1424.37z"/>
		<path class="st0" d="M417.43,1433.47h-2.3v-8.45c-2.16,2.78-5.23,5.74-8.26,7.27l-1.18-2.04c2.83-1.25,6.29-4.42,8.28-7.13h-7.8
			v-2.14h8.95v-3.67h-7.22v-2.11h7.22v-3.65h2.3v3.65h7.42v2.11h-7.42v3.67h9.12v2.14h-7.99c2.02,2.71,5.5,5.9,8.33,7.13l-1.15,2.06
			c-3.05-1.54-6.14-4.58-8.3-7.37V1433.47z"/>
		<path class="st0" d="M442.7,1433.47h-2.3v-7.7c-2.16,2.64-5.16,5.4-8.21,6.82l-1.08-2.09c3.36-1.34,7.3-4.97,9.29-8.14v-5.67
			h-8.64v-2.06h8.64v-3.07h2.3v3.07h8.93v2.06h-8.93v5.54c0.19,0.41,0.43,0.74,0.65,1.06c1.56-1.34,2.54-3.84,3.05-6.19l2.09,0.41
			c-0.19,0.89-0.48,1.85-0.82,2.64c0.46,0.34,0.98,0.74,1.49,1.15l0.22,0.17c0.96,0.79,1.9,1.58,2.45,2.11l-1.56,1.49
			c-0.7-0.77-2.21-2.06-3.43-3.1c-0.53,0.91-1.2,1.82-1.85,2.45c-0.36-0.29-1.06-0.79-1.58-1.06c2.06,2.83,5.64,5.86,8.74,7.01
			l-1.13,2.23c-3.17-1.42-6.17-4.22-8.3-6.91V1433.47z M433.05,1425.69l-1.42-1.61c1.87-1.44,3.48-4.13,4.15-6.98l2.06,0.43
			c-0.22,0.91-0.53,1.85-0.86,2.67c0.91,0.77,1.94,1.78,2.5,2.35l-1.46,1.54c-0.41-0.5-1.18-1.32-1.92-2.02
			C435.35,1423.41,434.23,1424.71,433.05,1425.69z"/>
		<path class="st0" d="M476.93,1417.17h-20.71v-1.94h5.4c-0.41-0.82-1.3-2.02-1.99-2.83l2.04-0.72c0.86,0.91,1.87,2.26,2.28,3.12
			l-1.2,0.43h7.34l-0.82-0.36c0.72-0.89,1.54-2.35,2.04-3.36l2.35,0.74c-0.22,0.29-0.43,0.6-0.67,0.89l-0.14,0.19
			c-0.53,0.7-1.08,1.37-1.54,1.9h5.62V1417.17z M461.74,1433.51l-0.14-1.85c0.72,0.05,1.56,0.05,1.85,0.05s0.41-0.19,0.41-0.5v-7.13
			l-0.77,1.25c-0.62-0.55-2.14-1.37-3.22-1.82l1.03-1.2c1.06,0.38,2.28,1.1,2.95,1.66v-3.02h-4.01v6.17l0.89-1.06
			c1.15,0.46,2.42,1.32,3.1,1.94l-0.86,1.3c-0.65-0.6-1.99-1.46-3.12-1.97v6.17h-2.06v-14.38h8.18v12.12c0,0.98-0.26,1.63-0.91,1.92
			C464.35,1433.49,463.46,1433.51,461.74,1433.51z M470.21,1429.03h-2.04v-9.67h2.04V1429.03z M470.09,1433.51l-0.14-2.04
			c0.67,0.02,1.56,0.05,2.14,0.05h0.19c0.12,0,0.22,0,0.29,0c0.36,0,0.53-0.19,0.53-0.55v-12.31h2.11v12.31
			c0,1.13-0.26,1.85-1.06,2.18C473.4,1433.49,472.08,1433.54,470.09,1433.51z"/>
		<path class="st0" d="M481.96,1433.3c-0.31-0.46-1.2-1.22-1.7-1.46c1.42-2.78,1.7-7.25,1.73-10.15v-8.23l1.25,0.36
			c2.14-0.5,4.51-1.27,5.93-1.94l1.75,1.58c-1.9,0.82-4.49,1.56-6.82,2.04v1.75h6.62v7.63h-6.7
			C483.83,1427.49,483.21,1431.09,481.96,1433.3z M488.63,1422.93v-3.74h-4.54v2.71c0,0.12,0,0.24,0,0.36v0.22c0,0.17,0,0.31,0,0.46
			H488.63z M499.62,1433.49h-2.18v-12h-3.29c-0.14,3.48-1.06,8.83-4.08,11.98c-0.29-0.46-1.08-1.27-1.61-1.51
			c3.12-3.26,3.58-8.52,3.58-11.93v-6.31l1.66,0.38c2.23-0.6,4.66-1.49,6.05-2.28l1.94,1.58c-2.04,1.01-4.97,1.9-7.51,2.52v3.5h7.85
			v2.06h-2.4V1433.49z"/>
	</g>
</g>
<g>
	<path class="st0" d="M397.28,1369.14l0.73-84.87l-3.45-0.73c-1.96,4.56-4.31,8.59-6.99,11.98c-4.13,5.22-8.99,9.13-14.44,11.62
		c-4.99,2.28-10.56,3.53-16.56,3.74v-9.93c6.45-0.29,12.66-2.14,18.49-5.51c6.34-3.67,11.65-8.79,15.79-15.21
		c3.86-5.99,6.36-12.73,7.45-20.08h8.99c1.09,7.35,3.59,14.1,7.44,20.08c4.14,6.42,9.45,11.54,15.79,15.21
		c5.83,3.37,12.04,5.22,18.49,5.51v9.93c-6.01-0.21-11.57-1.46-16.56-3.74c-5.46-2.49-10.32-6.4-14.44-11.62
		c-2.68-3.39-5.03-7.42-6.99-11.98l-3.45,0.73l0.73,84.88H397.28z"/>
</g>
</svg>
