<?xml version="1.0" encoding="utf-8"?>
<!-- Generator: Adobe Illustrator 27.4.1, SVG Export Plug-In . SVG Version: 6.00 Build 0)  -->
<svg version="1.1" id="Layer_1" xmlns="http://www.w3.org/2000/svg" xmlns:xlink="http://www.w3.org/1999/xlink" x="0px" y="0px"
	 viewBox="0 0 828 100.5" style="enable-background:new 0 0 828 100.5;" xml:space="preserve">
<style type="text/css">
	.st0{fill:#CBC8CD;}
	.st1{fill:#CACACA;}
	.st2{fill:none;stroke:#CBC8CD;stroke-width:3;stroke-miterlimit:10;}
</style>
<g>
	<g>
		<path class="st1" d="M278.27,24.93h-20.81v-2.18h8.5V4.51h2.3v6.99h8.33v2.14h-8.33v9.12h10.01V24.93z"/>
		<path class="st1" d="M295.54,26.16h-0.31l-0.07-1.9c0.98,0.07,2.09,0.07,2.45,0.12c0.31,0,0.43-0.22,0.43-0.5v-3.02h-5.93
			c0.96,0.79,2.14,2.21,2.66,2.98l-1.68,1.15c-0.55-0.82-1.85-2.38-2.86-3.29l1.22-0.84h-3.31v-1.73h9.89v-1.42h-0.14l-0.38,0.02
			c-3.26,0.1-6.36,0.19-8.74,0.24l-0.17-1.66h0.19c1.63,0,3.74-0.02,5.98-0.07v-1.32h-5.28V8.61h5.28V7.46h-6.05V6.04
			c-0.22,0.5-0.48,1.06-0.74,1.58l-0.1,0.22l-0.12,0.22c-0.02,0.02-0.05,0.05-0.05,0.1l-0.12,0.22c-0.26,0.48-0.53,0.96-0.79,1.42
			v16.3h-2.06V13.05c-0.65,0.84-1.44,1.78-1.87,2.26l-1.58-1.8c2.33-2.3,4.66-5.93,5.86-9.22l2.04,0.6
			c-0.12,0.31-0.26,0.65-0.41,0.96h6V4.39h1.94v1.46h6.43v1.61h-6.43v1.15h5.57v6.31h-1.44c0.98,0.84,2.18,1.99,2.74,2.69
			l-1.56,0.96c-0.19-0.26-0.5-0.65-0.79-0.96l-1.06,0.02v1.49h3.22v1.73h-3.22v3.1c0,1.01-0.29,1.68-1.06,1.92
			C298.42,26.13,297.22,26.16,295.54,26.16z M294.77,11.13V9.88h-3.31v1.25H294.77z M291.46,13.65l3.31,0.02v-1.32h-3.31v1.32V13.65
			z M300.17,11.13V9.88h-3.46v1.25H300.17z M296.72,13.65l3.46,0.02v-1.32h-3.46v1.32V13.65z M296.72,16.22l3-0.1
			c-0.36-0.34-0.82-0.74-1.18-1.03l0.29-0.17h-2.11V16.22z"/>
		<path class="st1" d="M308.18,26.3l-0.72-2.11c4.49-1.06,5.83-3.89,6.22-6.98h-5.93v-2.06h20.47v2.06h-6.6v5.64
			c0,0.65,0.07,0.91,1.73,0.91h1.32c1.61,0,1.85-0.62,1.9-2.81l2.02,0.29c-0.29,3.41-1.01,4.51-3.86,4.51h-1.51
			c-3.24,0-3.72-0.84-3.72-2.9V17.2h-3.65C315.33,21.19,313.86,24.76,308.18,26.3z M310.48,11.68h-2.21V6.55h8.52V4.19h2.3v2.35
			h8.59v5.14h-2.3v-3.1h-14.91V11.68z M323.97,12.76h-12.02v-1.92h12.02V12.76z"/>
		<path class="st1" d="M334.27,26.28l-1.99-1.49c1.87-2.64,2.21-7.27,2.21-10.2V7.91h9.5c-0.02-0.53-0.05-1.1-0.07-1.66V6.02
			c0-0.05,0-0.1-0.02-0.12V5.66c0-0.5-0.02-0.98-0.02-1.44h2.18c0.02,0.55,0.02,1.13,0.02,1.68v0.24c0,0.6-0.02,1.2-0.02,1.78h4.58
			c-0.89-0.77-2.54-1.8-3.74-2.47l1.32-1.3c1.32,0.7,3.22,1.8,4.1,2.57l-1.13,1.2h2.42V10h-7.44c0.02,0.55,0.1,1.08,0.14,1.63
			l0.02,0.26c0,0.02,0.02,0.07,0.02,0.12l0.02,0.24c0.24,1.99,0.55,3.91,0.94,5.35c1.08-1.66,2.06-3.89,2.74-5.95l2.18,0.53
			c-0.96,2.9-2.42,5.95-4.15,8.14c0.74,1.9,1.73,3.43,2.78,3.43c0.58,0,0.94-1.51,1.06-4.01l1.9,0.41c-0.36,4.54-1.3,5.81-3.14,5.81
			c-1.66,0-3.17-1.46-4.18-3.7c-1.3,1.34-2.69,2.83-4.39,3.86l-1.27-1.99c1.7-0.94,3.38-2.62,4.78-4.22
			c-0.55-1.7-0.91-3.98-1.18-6.34l-0.02-0.26c-0.05-0.34-0.07-0.67-0.12-1.01l-0.02-0.26l-0.02-0.38c-0.02-0.22-0.05-0.43-0.05-0.65
			l-0.02-0.24c-0.02-0.17-0.02-0.34-0.05-0.5L344.11,10h-7.34v2.93h5.71v0.84c-0.12,4.9-0.24,7.32-0.74,7.94
			c-0.41,0.48-0.7,0.72-1.3,0.79c-0.58,0.07-1.66,0.07-3,0.02l-0.05-1.99c0.65,0.07,1.58,0.12,1.94,0.12c0.34,0,0.41-0.12,0.58-0.34
			c0.24-0.31,0.38-2.02,0.43-5.42h-3.58C336.74,18.09,336.19,23.49,334.27,26.28z"/>
		<path class="st1" d="M361.61,18.64c1.85-0.7,2.93-1.8,3.05-3.24c-0.1,0.02-0.22,0.02-0.34,0.02c-1.08,0-2.02-0.67-2.02-1.92
			c0-1.22,0.94-1.92,2.04-1.92c1.51,0,2.3,1.18,2.3,3c0,2.66-1.68,4.73-4.42,5.62L361.61,18.64z"/>
		<path class="st1" d="M386.06,26.13h-0.36l-0.17-1.7c0.65,0.02,1.37,0.02,1.9,0.02h0.22c0.24,0,0.43,0,0.55,0
			c0.38-0.05,0.48-0.19,0.48-0.5v-2.64h-7.9c1.06,0.7,2.06,1.78,2.66,2.47l-1.37,1.32c-0.65-0.79-2.18-2.14-3.41-2.88l1.01-0.91
			h-4.99v-1.78h13.99v-1.42h-3.14v-4.94h8.76v4.94h-3.46v1.42h4.8v1.78h-4.8v2.66c0,1.03-0.31,1.63-1.1,1.9
			C388.99,26.13,387.94,26.13,386.06,26.13z M392.4,12.09h-14.64v-1.46h12.48V9.35h-15.36V7.99h15.36V6.76h-12.36V5.27h14.52v2.54
			h3.14v1.66h-3.14V12.09z M384.24,17.95L384,17.97c-0.43,0.05-0.84,0.07-1.27,0.1l-0.65,0.07c-0.46,0.02-0.94,0.07-1.39,0.1
			l-0.24,0.02c-1.94,0.14-3.74,0.26-5.16,0.34l-0.14-1.63c0.98-0.05,2.38-0.12,3.72-0.22v-2.04h-3.31v-1.54h8.52v1.54h-3.14v1.92
			l3.58-0.24v1.54C384.41,17.95,384.34,17.95,384.24,17.95z M392.14,16.68v-2.09h-4.56v2.09H392.14z"/>
		<path class="st1" d="M400.64,25.94L400.52,24c0.62,0.02,1.56,0.02,1.94,0.02h0.12c0.31-0.02,0.48-0.22,0.48-0.55v-5.83l-2.93,0.82
			l-0.58-2.09c0.94-0.31,2.28-0.58,3.5-0.91v-4.7h-3.19V8.75h3.19V4.22h2.14v4.54h2.69v1.99h-2.69v4.18
			c0.31-0.1,0.65-0.17,0.98-0.26l0.24-0.07c0.48-0.14,0.98-0.29,1.46-0.41l0.24,1.97c-0.46,0.14-0.96,0.29-1.46,0.46l-0.24,0.07
			c-0.41,0.14-0.84,0.29-1.22,0.41v6.38c0,1.08-0.29,1.78-0.94,2.06C403.59,25.87,402.42,25.94,400.64,25.94z M418.35,25.96
			c-1.99-0.19-3.7-1.82-4.78-4.03c-1.44,1.25-3.05,2.59-4.97,3.48l-1.1-1.97c1.66-0.65,3.6-2.21,5.26-3.75
			c-0.43-1.34-0.72-3.12-0.96-4.97l-0.05-0.26c0-0.05,0-0.07,0-0.12l-0.05-0.38c-0.02-0.1-0.02-0.17-0.05-0.26l-0.02-0.24
			c-0.02-0.19-0.05-0.36-0.07-0.53l-0.02-0.24l-0.05-0.26c0-0.05,0-0.1,0-0.12l-3.29,0.31l-0.19-2.04l3.31-0.34
			c-0.07-0.84-0.14-1.73-0.19-2.67l-0.02-0.24c0-0.12,0-0.24-0.02-0.36V6.74c-0.02-0.07-0.02-0.17-0.02-0.24V6.26
			c-0.05-0.58-0.07-1.15-0.1-1.7l-0.02-0.24h2.18c0,0.07,0,0.17,0,0.24v0.24c0,0.1,0,0.17,0.02,0.24V5.3c0,0.12,0,0.24,0,0.36v0.36
			c0,0.22,0,0.41,0.02,0.62v0.24c0,1.1,0.02,2.18,0.14,3.14l7.18-0.72l0.22,2.04l-7.03,0.74c0.05,0.24,0.07,0.5,0.1,0.74l0.05,0.38
			c0.02,0.29,0.07,0.6,0.1,0.89l0.05,0.24c0.14,1.3,0.34,2.52,0.6,3.48c1.25-1.49,2.47-3.38,3.19-5.04l1.78,1.1
			c-0.94,2.16-2.45,4.51-4.22,6.29c0.74,1.73,1.78,3.1,2.98,3.24c0.58,0.02,0.98-1.46,1.13-3.48l1.9,0.48
			C420.71,24.62,419.55,26.06,418.35,25.96z M417.37,9.14c-0.41-0.48-1.03-1.18-1.68-1.9l-0.17-0.19c-0.46-0.48-0.89-0.96-1.27-1.37
			l1.63-1.06c1.01,1.01,2.5,2.5,3.26,3.29L417.37,9.14z"/>
		<path class="st1" d="M429.53,26.11h-2.06V13.05c-0.65,0.86-1.44,1.78-1.87,2.26l-1.58-1.78c2.33-2.3,4.63-5.93,5.86-9.22l2.04,0.6
			c-0.62,1.61-1.51,3.34-2.38,4.87V26.11z M435.49,26.16L435.32,24c0.7,0.02,1.75,0.02,2.04,0c0.31,0,0.31-0.14,0.31-0.48V10.51
			h-3.05l-0.12,0.22c-0.62,1.37-1.25,2.71-1.94,3.65l-1.78-1.42c1.68-1.97,2.95-5.47,3.72-8.64l2.11,0.46
			c-0.31,1.25-0.74,2.57-1.2,3.74h8.78l0.41-0.07l1.51,0.31c-0.29,1.75-0.79,3.89-1.08,5.16l-1.82-0.36c0.14-0.6,0.29-1.51,0.41-2.4
			l0.02-0.26c0.02-0.14,0.05-0.26,0.05-0.38h-3.94v13.01c0,1.08-0.07,1.85-0.77,2.21C438.32,26.06,437.21,26.16,435.49,26.16z
			 M432.77,22.89l-1.63-1.2c1.32-1.66,2.28-4.7,2.83-7.3l2.11,0.38C435.41,17.68,434.12,21.04,432.77,22.89z M443.79,22.82
			c-0.31-2.02-1.51-5.67-2.69-8.02l1.97-0.62c1.22,2.33,2.47,5.86,2.83,7.9L443.79,22.82z"/>
		<path class="st1" d="M463.05,25.99l-0.07-2.02c1.03,0.07,2.35,0.14,2.86,0.14c0.46,0,0.77-0.14,1.06-0.46
			c0.7-0.77,1.22-5.06,1.56-13.56h-6.48c-0.7,1.42-1.66,2.9-2.52,3.91c-0.19-0.17-0.48-0.46-0.79-0.72v9.41h-7.9V8.06h2.45
			c0.38-1.13,0.86-2.76,1.03-3.89l2.42,0.41c-0.41,1.13-0.96,2.47-1.37,3.48h3.36v3.24c1.37-1.85,2.54-4.61,3.19-7.18l2.13,0.48
			c-0.29,1.15-0.72,2.4-1.15,3.5h7.73c0,0,0,0.74-0.02,1.03c-0.41,10.08-0.89,14.64-1.82,15.77c-0.55,0.74-1.13,1.01-1.97,1.1
			C465.98,26.11,464.58,26.08,463.05,25.99z M456.71,13.99V9.96h-3.91v4.03H456.71z M456.71,20.73v-4.82h-3.91v4.82H456.71z
			 M466.58,17.01h-6.53v-1.9h6.53V17.01z"/>
		<path class="st1" d="M486.33,26.11h-2.3v-8.45c-2.16,2.78-5.23,5.74-8.26,7.27l-1.18-2.04c2.83-1.25,6.29-4.42,8.28-7.13h-7.8
			v-2.14h8.95V9.96h-7.22V7.84h7.22V4.19h2.3v3.65h7.42v2.11h-7.42v3.67h9.12v2.14h-7.99c2.02,2.71,5.5,5.9,8.33,7.13l-1.15,2.06
			c-3.05-1.54-6.14-4.58-8.31-7.37V26.11z"/>
		<path class="st1" d="M511.6,26.11h-2.3V18.4c-2.16,2.64-5.16,5.4-8.21,6.82l-1.08-2.09c3.36-1.34,7.3-4.97,9.29-8.14V9.33h-8.64
			V7.27h8.64V4.19h2.3v3.07h8.93v2.06h-8.93v5.54c0.19,0.41,0.43,0.74,0.65,1.06c1.56-1.34,2.54-3.84,3.05-6.19l2.09,0.41
			c-0.19,0.89-0.48,1.85-0.82,2.64c0.46,0.34,0.98,0.74,1.49,1.15l0.22,0.17c0.96,0.79,1.9,1.58,2.45,2.11l-1.56,1.49
			c-0.7-0.77-2.21-2.06-3.43-3.1c-0.53,0.91-1.2,1.82-1.85,2.45c-0.36-0.29-1.06-0.79-1.58-1.06c2.06,2.83,5.64,5.86,8.74,7.01
			l-1.13,2.23c-3.17-1.42-6.17-4.22-8.3-6.91V26.11z M501.95,18.33l-1.42-1.61c1.87-1.44,3.48-4.13,4.15-6.99l2.06,0.43
			c-0.22,0.91-0.53,1.85-0.86,2.66c0.91,0.77,1.94,1.78,2.5,2.35l-1.46,1.54c-0.41-0.5-1.18-1.32-1.92-2.02
			C504.26,16.05,503.13,17.35,501.95,18.33z"/>
		<path class="st1" d="M545.83,9.81h-20.71V7.87h5.4c-0.41-0.82-1.3-2.02-1.99-2.83l2.04-0.72c0.86,0.91,1.87,2.26,2.28,3.12
			l-1.2,0.43h7.34l-0.82-0.36c0.72-0.89,1.54-2.35,2.04-3.36l2.35,0.74c-0.22,0.29-0.43,0.6-0.67,0.89l-0.14,0.19
			c-0.53,0.7-1.08,1.37-1.54,1.9h5.62V9.81z M530.64,26.16l-0.14-1.85c0.72,0.05,1.56,0.05,1.85,0.05s0.41-0.19,0.41-0.5v-7.13
			l-0.77,1.25c-0.62-0.55-2.14-1.37-3.22-1.82l1.03-1.2c1.06,0.38,2.28,1.1,2.95,1.66v-3.02h-4.01v6.17l0.89-1.06
			c1.15,0.46,2.42,1.32,3.1,1.94l-0.86,1.3c-0.65-0.6-1.99-1.46-3.12-1.97v6.17h-2.06V11.75h8.18v12.12c0,0.98-0.26,1.63-0.91,1.92
			C533.25,26.13,532.37,26.16,530.64,26.16z M539.11,21.67h-2.04V12h2.04V21.67z M538.99,26.16l-0.14-2.04
			c0.67,0.02,1.56,0.05,2.14,0.05h0.19c0.12,0,0.22,0,0.29,0c0.36,0,0.53-0.19,0.53-0.55V11.3h2.11v12.31
			c0,1.13-0.26,1.85-1.06,2.18C542.3,26.13,540.98,26.18,538.99,26.16z"/>
		<path class="st1" d="M550.86,25.94c-0.31-0.46-1.2-1.22-1.7-1.46c1.42-2.78,1.7-7.25,1.73-10.15V6.09l1.25,0.36
			c2.14-0.5,4.51-1.27,5.93-1.94l1.75,1.58c-1.9,0.82-4.49,1.56-6.82,2.04v1.75h6.62v7.63h-6.7
			C552.73,20.13,552.11,23.73,550.86,25.94z M557.53,15.57v-3.74H553v2.71c0,0.12,0,0.24,0,0.36v0.22c0,0.17,0,0.31,0,0.46H557.53z
			 M568.53,26.13h-2.19v-12h-3.29c-0.14,3.48-1.06,8.83-4.08,11.98c-0.29-0.46-1.08-1.27-1.61-1.51c3.12-3.26,3.58-8.52,3.58-11.93
			V6.35l1.66,0.38c2.23-0.6,4.66-1.49,6.05-2.28l1.94,1.58c-2.04,1.01-4.97,1.9-7.51,2.52v3.5h7.85v2.06h-2.4V26.13z"/>
	</g>
</g>
<g>
	<g>
		<path class="st1" d="M263.76,62.37V47.86h3.88v14.36c0,3.07,2.17,4.5,4.93,4.5c2.73,0,4.96-1.43,4.96-4.5V47.86h3.88v14.51
			c0,4.93-3.07,7.57-8.84,7.57C266.8,69.94,263.76,67.3,263.76,62.37z"/>
		<path class="st1" d="M284.99,69.57v-21.7h7.72c4,0,8.87,0.65,8.87,6.73c0,6.01-4.84,6.67-8.9,6.67h-3.81v8.31H284.99z
			 M288.87,58.16h3.75c2.54,0,5.08-0.16,5.08-3.57c0-3.54-2.54-3.6-5.05-3.6h-3.78V58.16z"/>
		<path class="st1" d="M303.44,69.57v-21.7h3.84v18.42h10.88v3.29H303.44z"/>
		<path class="st1" d="M318.3,58.72c0-6.57,3.81-11.22,10.63-11.22c6.76,0,10.63,4.68,10.63,11.22c0,6.63-3.88,11.22-10.63,11.22
			C322.21,69.94,318.3,65.94,318.3,58.72z M333.9,64.64c1.05-1.43,1.55-3.5,1.55-5.92c0-2.48-0.56-4.56-1.55-5.92
			c-1.05-1.46-2.7-2.17-4.84-2.17c-2.33,0-4.06,0.81-5.05,2.08s-1.58,3.57-1.58,6.02c0,2.63,0.59,4.71,1.46,5.89
			c1.12,1.49,2.95,2.2,5.05,2.2C331.2,66.81,332.87,66.09,333.9,64.64z"/>
		<path class="st1" d="M355.6,69.57l-2.02-5.71h-8.46l-1.95,5.71h-4.12l8.34-21.7h4.03l8.28,21.7H355.6z M346.26,60.61h6.17
			l-1.83-5.24c-0.4-1.15-0.93-2.64-1.27-3.94h-0.03c-0.4,1.52-0.78,2.57-1.24,3.94L346.26,60.61z"/>
		<path class="st1" d="M361.24,69.57v-21.7h7.72c6.82,0,10.67,4.31,10.67,10.85c0,6.79-4.03,10.85-10.67,10.85H361.24z
			 M365.12,66.44h3.53c2.54,0,4.37-0.74,5.43-2.14c1.02-1.4,1.43-3.19,1.43-5.58c0-2.42-0.31-4-1.36-5.55
			c-1.05-1.55-3.04-2.17-5.49-2.17h-3.53V66.44z"/>
		<path class="st1" d="M387.28,58.72c0-6.57,3.78-11.22,10.64-11.22c4.65,0,8.46,2.33,9.67,7.07l-4.03,0.78
			c-0.59-2.7-2.42-4.71-5.61-4.71c-2.2,0-3.97,0.59-5.02,2.05c-1.02,1.4-1.52,3.44-1.52,6.05c0,2.63,0.37,4.43,1.33,5.86
			c1.05,1.49,2.76,2.23,5.18,2.23c3.19,0,4.99-1.89,5.74-4.37l4.09,1.08c-1.67,4.15-5.12,6.42-9.83,6.42
			C391.19,69.94,387.28,65.94,387.28,58.72z"/>
		<path class="st1" d="M408.68,58.72c0-6.57,3.81-11.22,10.64-11.22c6.76,0,10.63,4.68,10.63,11.22c0,6.63-3.88,11.22-10.63,11.22
			C412.59,69.94,408.68,65.94,408.68,58.72z M424.28,64.64c1.05-1.43,1.55-3.5,1.55-5.92c0-2.48-0.56-4.56-1.55-5.92
			c-1.05-1.46-2.7-2.17-4.84-2.17c-2.33,0-4.06,0.81-5.05,2.08s-1.58,3.57-1.58,6.02c0,2.63,0.59,4.71,1.46,5.89
			c1.12,1.49,2.95,2.2,5.05,2.2C421.58,66.81,423.26,66.09,424.28,64.64z"/>
		<path class="st1" d="M432.54,69.57v-21.7h6.01l3.54,11.16c0.84,2.7,1.49,4.96,1.89,6.6h0.03c0.43-1.64,1.21-4.43,1.86-6.57
			l3.54-11.19h5.98v21.7h-3.66V56.82c0-0.78,0.06-3.63,0.12-5.52h-0.06c-0.71,2.48-1.39,4.81-1.74,5.86l-4.03,12.4h-4.16l-4-12.46
			c-0.34-1.05-1.12-3.72-1.74-5.8h-0.06c0.03,1.89,0.12,4.84,0.12,5.58v12.68H432.54z"/>
		<path class="st1" d="M459.12,69.57v-21.7h7.72c4,0,8.87,0.65,8.87,6.73c0,6.01-4.84,6.67-8.9,6.67H463v8.31H459.12z M463,58.16
			h3.75c2.54,0,5.08-0.16,5.08-3.57c0-3.54-2.54-3.6-5.05-3.6H463V58.16z"/>
		<path class="st1" d="M477.57,69.57v-21.7h3.84v18.42h10.88v3.29H477.57z"/>
		<path class="st1" d="M493.94,69.57v-21.7h14.73v3.22h-10.85v5.92h9.71v3.19h-9.71v6.14h10.85v3.22H493.94z"/>
		<path class="st1" d="M516.86,69.57V51.15h-7.04v-3.29h17.98v3.29h-7.07v18.42H516.86z"/>
		<path class="st1" d="M529.43,69.57v-21.7h14.73v3.22h-10.85v5.92h9.71v3.19h-9.71v6.14h10.85v3.22H529.43z"/>
		<path class="st1" d="M546.82,69.57v-21.7h7.72c6.82,0,10.67,4.31,10.67,10.85c0,6.79-4.03,10.85-10.67,10.85H546.82z
			 M550.69,66.44h3.53c2.54,0,4.37-0.74,5.43-2.14c1.02-1.4,1.43-3.19,1.43-5.58c0-2.42-0.31-4-1.36-5.55
			c-1.05-1.55-3.04-2.17-5.49-2.17h-3.53V66.44z"/>
		<path class="st1" d="M186.66,92.44l4-0.43c0,3.19,2.2,4.81,5.21,4.81c2.76,0,4.99-0.87,4.99-3.41c0-2.57-2.91-2.48-6.17-3.19
			c-3.94-0.87-7.44-2.29-7.44-6.45c0-4.62,4.22-6.26,8.12-6.26c4.62,0,8.25,1.8,8.74,6.91l-3.94,0.68c-0.12-3.01-1.89-4.5-4.84-4.5
			c-2.2,0-4.16,0.93-4.16,2.98c0,1.98,2.42,2.6,5.43,3.1c4.56,0.74,8.22,1.92,8.22,6.57c0,5.24-4.5,6.7-8.99,6.7
			C190.97,99.94,186.72,97.58,186.66,92.44z"/>
		<path class="st1" d="M207.33,99.57v-21.7h14.73v3.22h-10.85v5.92h9.71v3.19h-9.71v6.14h10.85v3.22H207.33z"/>
		<path class="st1" d="M239.67,99.57l-2.02-5.71h-8.46l-1.95,5.71h-4.12l8.34-21.7h4.03l8.28,21.7H239.67z M230.33,90.61h6.17
			l-1.83-5.24c-0.4-1.15-0.93-2.64-1.27-3.94h-0.03c-0.4,1.52-0.77,2.57-1.24,3.94L230.33,90.61z"/>
		<path class="st1" d="M262.65,99.47l-0.03,0.09h-4.19c-0.68-1.12-0.87-2.11-0.87-4.96c0-2.6-1.21-3.6-4.25-3.6h-4.12v8.56h-3.88
			v-21.7h7.97c4.31,0,8.65,0.78,8.65,6.48c0,2.67-1.4,4.53-3.41,5.33c2.08,0.81,2.88,2.36,2.88,4.68S261.62,98.11,262.65,99.47z
			 M253.03,87.91c2.6,0,5.08-0.31,5.08-3.41c0-3.35-2.48-3.5-5.05-3.5h-3.88v6.91H253.03z"/>
		<path class="st1" d="M263.84,88.72c0-6.57,3.78-11.22,10.63-11.22c4.65,0,8.46,2.33,9.67,7.07l-4.03,0.78
			c-0.59-2.7-2.42-4.71-5.61-4.71c-2.2,0-3.97,0.59-5.02,2.05c-1.02,1.4-1.52,3.44-1.52,6.05c0,2.63,0.37,4.43,1.33,5.86
			c1.05,1.49,2.76,2.23,5.18,2.23c3.19,0,4.99-1.89,5.74-4.37l4.09,1.08c-1.67,4.15-5.12,6.42-9.83,6.42
			C267.75,99.94,263.84,95.94,263.84,88.72z"/>
		<path class="st1" d="M286.34,99.57v-21.7h3.88v9.08h9.49v-9.08h3.88v21.7h-3.88v-9.3h-9.49v9.3H286.34z"/>
		<path class="st1" d="M313.53,99.57v-21.7h14.73v3.22h-10.88v5.92h9.74v3.19h-9.74v9.36H313.53z"/>
		<path class="st1" d="M328.95,88.72c0-6.57,3.81-11.22,10.64-11.22c6.76,0,10.63,4.68,10.63,11.22c0,6.63-3.88,11.22-10.63,11.22
			C332.86,99.94,328.95,95.94,328.95,88.72z M344.55,94.64c1.05-1.43,1.55-3.5,1.55-5.92c0-2.48-0.56-4.56-1.55-5.92
			c-1.05-1.46-2.7-2.17-4.84-2.17c-2.33,0-4.06,0.81-5.05,2.08s-1.58,3.57-1.58,6.02c0,2.63,0.59,4.71,1.46,5.89
			c1.12,1.49,2.95,2.2,5.05,2.2C341.85,96.81,343.52,96.09,344.55,94.64z"/>
		<path class="st1" d="M370.14,99.47l-0.03,0.09h-4.19c-0.68-1.12-0.87-2.11-0.87-4.96c0-2.6-1.21-3.6-4.25-3.6h-4.12v8.56h-3.88
			v-21.7h7.97c4.31,0,8.65,0.78,8.65,6.48c0,2.67-1.4,4.53-3.41,5.33c2.08,0.81,2.88,2.36,2.88,4.68S369.11,98.11,370.14,99.47z
			 M360.53,87.91c2.6,0,5.08-0.31,5.08-3.41c0-3.35-2.48-3.5-5.05-3.5h-3.88v6.91H360.53z"/>
		<path class="st1" d="M384.33,99.57v-9.12l-7.63-12.59h4.43l3.01,5.36c0.34,0.59,1.36,2.57,2.14,4.09
			c0.81-1.49,1.52-2.95,2.17-4.09l3.04-5.36h4.37l-7.66,12.59v9.12H384.33z"/>
		<path class="st1" d="M394.9,88.72c0-6.57,3.81-11.22,10.64-11.22c6.76,0,10.63,4.68,10.63,11.22c0,6.63-3.88,11.22-10.63,11.22
			C398.81,99.94,394.9,95.94,394.9,88.72z M410.5,94.64c1.05-1.43,1.55-3.5,1.55-5.92c0-2.48-0.56-4.56-1.55-5.92
			c-1.05-1.46-2.7-2.17-4.84-2.17c-2.33,0-4.06,0.81-5.05,2.08s-1.58,3.57-1.58,6.02c0,2.63,0.59,4.71,1.46,5.89
			c1.12,1.49,2.95,2.2,5.05,2.2C407.8,96.81,409.47,96.09,410.5,94.64z"/>
		<path class="st1" d="M418.54,92.37V77.86h3.88v14.36c0,3.07,2.17,4.5,4.93,4.5c2.73,0,4.96-1.43,4.96-4.5V77.86h3.88v14.51
			c0,4.93-3.07,7.57-8.84,7.57C421.58,99.94,418.54,97.3,418.54,92.37z"/>
		<path class="st1" d="M457.1,99.47l-0.03,0.09h-4.19c-0.68-1.12-0.87-2.11-0.87-4.96c0-2.6-1.21-3.6-4.25-3.6h-4.12v8.56h-3.88
			v-21.7h7.97c4.31,0,8.65,0.78,8.65,6.48c0,2.67-1.4,4.53-3.41,5.33c2.08,0.81,2.88,2.36,2.88,4.68S456.08,98.11,457.1,99.47z
			 M447.49,87.91c2.6,0,5.08-0.31,5.08-3.41c0-3.35-2.48-3.5-5.05-3.5h-3.88v6.91H447.49z"/>
		<path class="st1" d="M465.78,99.57v-21.7h14.73v3.22h-10.88v5.92h9.74v3.19h-9.74v9.36H465.78z"/>
		<path class="st1" d="M482.26,92.37V77.86h3.88v14.36c0,3.07,2.17,4.5,4.93,4.5c2.73,0,4.96-1.43,4.96-4.5V77.86h3.88v14.51
			c0,4.93-3.07,7.57-8.84,7.57C485.3,99.94,482.26,97.3,482.26,92.37z"/>
		<path class="st1" d="M508.48,99.57V81.15h-7.04v-3.29h17.98v3.29h-7.07v18.42H508.48z"/>
		<path class="st1" d="M520.96,92.37V77.86h3.88v14.36c0,3.07,2.17,4.5,4.93,4.5c2.73,0,4.96-1.43,4.96-4.5V77.86h3.88v14.51
			c0,4.93-3.07,7.57-8.84,7.57C524,99.94,520.96,97.3,520.96,92.37z"/>
		<path class="st1" d="M559.53,99.47l-0.03,0.09h-4.19c-0.68-1.12-0.87-2.11-0.87-4.96c0-2.6-1.21-3.6-4.25-3.6h-4.12v8.56h-3.88
			v-21.7h7.97c4.31,0,8.65,0.78,8.65,6.48c0,2.67-1.4,4.53-3.41,5.33c2.08,0.81,2.88,2.36,2.88,4.68S558.5,98.11,559.53,99.47z
			 M549.91,87.91c2.6,0,5.08-0.31,5.08-3.41c0-3.35-2.48-3.5-5.05-3.5h-3.88v6.91H549.91z"/>
		<path class="st1" d="M561.99,99.57v-21.7h14.73v3.22h-10.85v5.92h9.71v3.19h-9.71v6.14h10.85v3.22H561.99z"/>
		<path class="st1" d="M585.7,99.57v-21.7h3.84v18.42h10.88v3.29H585.7z"/>
		<path class="st1" d="M602.08,99.57v-21.7h3.88v21.7H602.08z"/>
		<path class="st1" d="M609.62,99.57v-21.7h14.73v3.22h-10.88v5.92h9.74v3.19h-9.74v9.36H609.62z"/>
		<path class="st1" d="M626.19,99.57v-21.7h14.73v3.22h-10.85v5.92h9.71v3.19h-9.71v6.14h10.85v3.22H626.19z"/>
	</g>
</g>
</svg>
