<?xml version="1.0" encoding="utf-8"?>
<!-- Generator: Adobe Illustrator 27.4.1, SVG Export Plug-In . SVG Version: 6.00 Build 0)  -->
<svg version="1.1" id="Layer_1" xmlns="http://www.w3.org/2000/svg" xmlns:xlink="http://www.w3.org/1999/xlink" x="0px" y="0px"
	 viewBox="0 0 828 297.5" style="enable-background:new 0 0 828 297.5;" xml:space="preserve">
<style type="text/css">
	.st0{fill:#CBC8CD;}
	.st1{fill:#CACACA;}
	.st2{fill:none;stroke:#CBC8CD;stroke-width:3;stroke-miterlimit:10;}
</style>
<g>
	<g>
		<path class="st0" d="M203.78,80.6V58.9h3.88v21.7H203.78z"/>
		<path class="st0" d="M216.46,69.75c0-6.57,3.78-11.22,10.63-11.22c4.65,0,8.46,2.33,9.67,7.07l-4.03,0.78
			c-0.59-2.7-2.42-4.71-5.61-4.71c-2.2,0-3.97,0.59-5.02,2.05c-1.02,1.4-1.52,3.44-1.52,6.05c0,2.64,0.37,4.43,1.33,5.86
			c1.05,1.49,2.76,2.23,5.18,2.23c3.19,0,4.99-1.89,5.74-4.37l4.09,1.09c-1.67,4.15-5.12,6.42-9.83,6.42
			C220.36,80.98,216.46,76.98,216.46,69.75z"/>
		<path class="st0" d="M237.86,69.75c0-6.57,3.81-11.22,10.63-11.22c6.76,0,10.64,4.68,10.64,11.22c0,6.64-3.88,11.22-10.64,11.22
			C241.76,80.98,237.86,76.98,237.86,69.75z M253.45,75.67c1.05-1.43,1.55-3.5,1.55-5.92c0-2.48-0.56-4.56-1.55-5.92
			c-1.05-1.46-2.7-2.17-4.84-2.17c-2.33,0-4.06,0.81-5.05,2.08s-1.58,3.57-1.58,6.01c0,2.64,0.59,4.71,1.46,5.89
			c1.12,1.49,2.95,2.2,5.05,2.2C250.76,77.84,252.43,77.13,253.45,75.67z"/>
		<path class="st0" d="M261.71,80.6V58.9h4.37l6.45,11.35c0.87,1.58,2.05,3.75,2.85,5.61h0.03c-0.09-1.95-0.16-4.84-0.16-5.95V58.9
			h3.69v21.7h-4.43l-6.54-11.57c-0.65-1.12-1.95-3.5-2.7-5.3h-0.03c0.09,2.23,0.15,5.18,0.15,5.8V80.6H261.71z"/>
		<path class="st0" d="M281.42,73.47l4-0.43c0,3.19,2.2,4.81,5.21,4.81c2.76,0,4.99-0.87,4.99-3.41c0-2.57-2.91-2.48-6.17-3.19
			c-3.94-0.87-7.44-2.29-7.44-6.45c0-4.62,4.22-6.26,8.12-6.26c4.62,0,8.25,1.8,8.74,6.91l-3.94,0.68c-0.12-3.01-1.89-4.5-4.84-4.5
			c-2.2,0-4.15,0.93-4.15,2.98c0,1.98,2.42,2.6,5.43,3.1c4.56,0.74,8.22,1.92,8.22,6.57c0,5.24-4.5,6.7-8.99,6.7
			C285.72,80.98,281.48,78.62,281.42,73.47z"/>
		<path class="st0" d="M302.09,80.6V58.9h14.73v3.22h-10.85v5.92h9.71v3.19h-9.71v6.14h10.85v3.22H302.09z"/>
		<path class="st0" d="M319.48,80.6V58.9h4.37l6.45,11.35c0.87,1.58,2.05,3.75,2.85,5.61h0.03c-0.09-1.95-0.15-4.84-0.15-5.95V58.9
			h3.69v21.7h-4.43l-6.54-11.57c-0.65-1.12-1.95-3.5-2.7-5.3h-0.03c0.09,2.23,0.16,5.18,0.16,5.8V80.6H319.48z"/>
		<path class="st0" d="M345.38,80.6V62.19h-7.04V58.9h17.98v3.29h-7.07V80.6H345.38z"/>
		<path class="st0" d="M369.16,80.6V62.19h-7.04V58.9h17.98v3.29h-7.07V80.6H369.16z"/>
		<path class="st0" d="M380.19,69.75c0-6.57,3.81-11.22,10.63-11.22c6.76,0,10.64,4.68,10.64,11.22c0,6.64-3.88,11.22-10.64,11.22
			C384.1,80.98,380.19,76.98,380.19,69.75z M395.78,75.67c1.05-1.43,1.55-3.5,1.55-5.92c0-2.48-0.56-4.56-1.55-5.92
			c-1.05-1.46-2.7-2.17-4.84-2.17c-2.33,0-4.06,0.81-5.05,2.08s-1.58,3.57-1.58,6.01c0,2.64,0.59,4.71,1.46,5.89
			c1.12,1.49,2.95,2.2,5.05,2.2C393.09,77.84,394.76,77.13,395.78,75.67z"/>
		<path class="st0" d="M415.19,80.6V62.19h-7.04V58.9h17.98v3.29h-7.07V80.6H415.19z"/>
		<path class="st0" d="M427.76,80.6V58.9h3.88v9.08h9.49V58.9H445v21.7h-3.88v-9.3h-9.49v9.3H427.76z"/>
		<path class="st0" d="M448.72,80.6V58.9h14.73v3.22H452.6v5.92h9.71v3.19h-9.71v6.14h10.85v3.22H448.72z"/>
		<path class="st0" d="M472.25,73.41V58.9h3.88v14.36c0,3.07,2.17,4.5,4.93,4.5c2.73,0,4.96-1.43,4.96-4.5V58.9h3.88v14.51
			c0,4.93-3.07,7.57-8.84,7.57C475.29,80.98,472.25,78.34,472.25,73.41z"/>
		<path class="st0" d="M492.14,73.47l4-0.43c0,3.19,2.2,4.81,5.21,4.81c2.76,0,4.99-0.87,4.99-3.41c0-2.57-2.92-2.48-6.17-3.19
			c-3.94-0.87-7.44-2.29-7.44-6.45c0-4.62,4.22-6.26,8.12-6.26c4.62,0,8.25,1.8,8.74,6.91l-3.94,0.68c-0.12-3.01-1.89-4.5-4.84-4.5
			c-2.2,0-4.15,0.93-4.15,2.98c0,1.98,2.42,2.6,5.43,3.1c4.56,0.74,8.22,1.92,8.22,6.57c0,5.24-4.5,6.7-8.99,6.7
			C496.45,80.98,492.2,78.62,492.14,73.47z"/>
		<path class="st0" d="M512.82,80.6V58.9h14.73v3.22h-10.85v5.92h9.71v3.19h-9.71v6.14h10.85v3.22H512.82z"/>
		<path class="st0" d="M535.39,69.75c0-6.57,3.81-11.22,10.63-11.22c6.76,0,10.64,4.68,10.64,11.22c0,6.64-3.88,11.22-10.64,11.22
			C539.29,80.98,535.39,76.98,535.39,69.75z M550.98,75.67c1.05-1.43,1.55-3.5,1.55-5.92c0-2.48-0.56-4.56-1.55-5.92
			c-1.05-1.46-2.7-2.17-4.84-2.17c-2.33,0-4.06,0.81-5.05,2.08s-1.58,3.57-1.58,6.01c0,2.64,0.59,4.71,1.46,5.89
			c1.12,1.49,2.95,2.2,5.05,2.2C548.28,77.84,549.96,77.13,550.98,75.67z"/>
		<path class="st0" d="M559.24,80.6V58.9h14.73v3.22h-10.88v5.92h9.74v3.19h-9.74v9.36H559.24z"/>
		<path class="st0" d="M582.3,80.6V58.9h6.02l3.53,11.16c0.84,2.7,1.49,4.96,1.89,6.6h0.03c0.43-1.64,1.21-4.43,1.86-6.57
			l3.53-11.19h5.98v21.7h-3.66V67.86c0-0.78,0.06-3.63,0.12-5.52h-0.06c-0.71,2.48-1.4,4.81-1.74,5.86l-4.03,12.4h-4.15l-4-12.46
			c-0.34-1.05-1.12-3.72-1.74-5.8h-0.06c0.03,1.89,0.12,4.84,0.12,5.58V80.6H582.3z"/>
		<path class="st0" d="M614.41,80.6v-9.12l-7.63-12.59h4.43l3.01,5.36c0.34,0.59,1.36,2.57,2.14,4.09c0.81-1.49,1.52-2.95,2.17-4.09
			l3.04-5.36h4.37l-7.66,12.59v9.12H614.41z"/>
		<path class="st0" d="M265.57,110.6V88.9h3.84v18.42h10.88v3.29H265.57z"/>
		<path class="st0" d="M281.95,110.6V88.9h3.88v21.7H281.95z"/>
		<path class="st0" d="M302.57,110.6l-6.82-9.92l-2.39,2.42v7.5h-3.88V88.9h3.88v9.33l8.9-9.33h4.96l-8.81,9.02l8.9,12.68H302.57z"
			/>
		<path class="st0" d="M308.67,110.6V88.9h14.73v3.22h-10.85v5.92h9.7v3.19h-9.7v6.14h10.85v3.22H308.67z"/>
		<path class="st0" d="M326.06,110.6V88.9h4.37l6.45,11.35c0.87,1.58,2.05,3.75,2.85,5.61h0.03c-0.09-1.95-0.15-4.84-0.15-5.95V88.9
			h3.69v21.7h-4.43l-6.54-11.57c-0.65-1.12-1.95-3.5-2.7-5.3h-0.03c0.09,2.23,0.16,5.18,0.16,5.8v11.07H326.06z"/>
		<path class="st0" d="M347.02,110.6V88.9h14.73v3.22h-10.85v5.92h9.7v3.19h-9.7v6.14h10.85v3.22H347.02z"/>
		<path class="st0" d="M362.81,103.47l4-0.43c0,3.19,2.2,4.81,5.21,4.81c2.76,0,4.99-0.87,4.99-3.41c0-2.57-2.91-2.48-6.17-3.19
			c-3.94-0.87-7.44-2.29-7.44-6.45c0-4.62,4.22-6.26,8.12-6.26c4.62,0,8.25,1.8,8.74,6.91l-3.94,0.68c-0.12-3.01-1.89-4.5-4.84-4.5
			c-2.2,0-4.15,0.93-4.15,2.98c0,1.98,2.42,2.6,5.43,3.1c4.56,0.74,8.22,1.92,8.22,6.57c0,5.24-4.5,6.7-8.99,6.7
			C367.12,110.98,362.87,108.62,362.81,103.47z"/>
		<path class="st0" d="M382.31,103.47l4-0.43c0,3.19,2.2,4.81,5.21,4.81c2.76,0,4.99-0.87,4.99-3.41c0-2.57-2.91-2.48-6.17-3.19
			c-3.94-0.87-7.44-2.29-7.44-6.45c0-4.62,4.22-6.26,8.12-6.26c4.62,0,8.25,1.8,8.74,6.91l-3.94,0.68c-0.12-3.01-1.89-4.5-4.84-4.5
			c-2.2,0-4.15,0.93-4.15,2.98c0,1.98,2.42,2.6,5.43,3.1c4.56,0.74,8.22,1.92,8.22,6.57c0,5.24-4.5,6.7-8.99,6.7
			C386.62,110.98,382.37,108.62,382.31,103.47z"/>
		<path class="st0" d="M408.94,103.41V88.9h3.88v14.36c0,3.07,2.17,4.5,4.93,4.5c2.73,0,4.96-1.43,4.96-4.5V88.9h3.88v14.51
			c0,4.93-3.07,7.57-8.84,7.57C411.98,110.98,408.94,108.34,408.94,103.41z"/>
		<path class="st0" d="M430.17,110.6V88.9h7.72c4,0,8.87,0.65,8.87,6.73c0,6.01-4.84,6.67-8.9,6.67h-3.81v8.31H430.17z
			 M434.05,99.19h3.75c2.54,0,5.08-0.16,5.08-3.57c0-3.54-2.54-3.6-5.05-3.6h-3.78V99.19z"/>
		<path class="st0" d="M448.62,110.6V88.9h3.84v18.42h10.88v3.29H448.62z"/>
		<path class="st0" d="M463.48,99.75c0-6.57,3.81-11.22,10.63-11.22c6.76,0,10.64,4.68,10.64,11.22c0,6.64-3.88,11.22-10.64,11.22
			C467.38,110.98,463.48,106.98,463.48,99.75z M479.07,105.67c1.05-1.43,1.55-3.5,1.55-5.92c0-2.48-0.56-4.56-1.55-5.92
			c-1.05-1.46-2.7-2.17-4.84-2.17c-2.33,0-4.06,0.81-5.05,2.08s-1.58,3.57-1.58,6.01c0,2.64,0.59,4.71,1.46,5.89
			c1.12,1.49,2.95,2.2,5.05,2.2C476.38,107.84,478.05,107.13,479.07,105.67z"/>
		<path class="st0" d="M500.77,110.6l-2.02-5.71h-8.46l-1.95,5.71h-4.12l8.34-21.7h4.03l8.28,21.7H500.77z M491.44,101.64h6.17
			l-1.83-5.24c-0.4-1.15-0.93-2.64-1.27-3.94h-0.03c-0.4,1.52-0.77,2.57-1.24,3.94L491.44,101.64z"/>
		<path class="st0" d="M506.42,110.6V88.9h7.72c6.82,0,10.67,4.31,10.67,10.85c0,6.79-4.03,10.85-10.67,10.85H506.42z M510.3,107.47
			h3.53c2.54,0,4.37-0.74,5.43-2.14c1.02-1.4,1.43-3.19,1.43-5.58c0-2.42-0.31-4-1.36-5.55c-1.05-1.55-3.04-2.17-5.49-2.17h-3.53
			V107.47z"/>
		<path class="st0" d="M527.39,110.6V88.9h14.73v3.22h-10.85v5.92h9.7v3.19h-9.7v6.14h10.85v3.22H527.39z"/>
		<path class="st0" d="M544.78,110.6V88.9h7.72c6.82,0,10.67,4.31,10.67,10.85c0,6.79-4.03,10.85-10.67,10.85H544.78z
			 M548.65,107.47h3.53c2.54,0,4.37-0.74,5.43-2.14c1.02-1.4,1.43-3.19,1.43-5.58c0-2.42-0.31-4-1.36-5.55
			c-1.05-1.55-3.04-2.17-5.49-2.17h-3.53V107.47z"/>
	</g>
</g>
<g>
	<g>
		<path class="st0" d="M300.49,37.62h-2.3v-4.37h-4.13v-2.23h4.13v-6.43c-1.99,3.65-5.02,7.42-8.3,9.38l-1.25-1.99
			c3.1-1.66,6.38-5.71,8.23-9.41h-7.56v-2.16h8.88v-4.71h2.3v4.71h8.95l0.02,2.16h-7.63c1.82,3.65,5.14,7.58,8.33,9.19l-1.3,2.14
			c-3.38-1.9-6.38-5.69-8.38-9.34v6.46h4.03v2.23h-4.03V37.62z"/>
		<path class="st0" d="M333.12,37.53c-5.69-2.74-8.47-8.86-9.65-13.2c-1.08,4.3-3.72,10.06-9.19,13.2l-1.3-1.97
			c8.76-4.66,8.93-16.25,9.07-19.23h2.42c-0.02,0.31-0.02,0.72-0.07,1.13c0.22,3,1.7,14.21,9.89,17.98L333.12,37.53z"/>
		<path class="st0" d="M341.02,37.7h-2.09V16.84h19.11v18.12c0,1.18-0.31,1.97-1.06,2.3c-0.74,0.34-2.09,0.43-4.27,0.41l-0.14-2.11
			c0.96,0.05,2.4,0.07,2.78,0.07c0.38-0.02,0.58-0.29,0.58-0.67V18.88h-14.91V37.7z M354.15,22.81h-11.33v-1.8h11.33V22.81z
			 M352.97,33.18h-9v-8.11h9V33.18z M351.17,31.41v-4.54h-5.35v4.54H351.17z"/>
		<path class="st0" d="M364.39,37.09l-1.7-1.15c1.15-1.18,2.47-2.86,3.29-4.1l1.87,0.7C366.91,33.97,365.64,35.78,364.39,37.09z
			 M383.3,23.44h-19.87v-1.51h5.28c-0.17-0.5-0.46-1.15-0.67-1.58l0.36-0.07h-3.86v-1.51h17.57v1.51h-3.43
			c-0.29,0.58-0.65,1.22-0.86,1.66h5.5V23.44z M374.59,34.17c-0.82-0.67-2.66-1.68-4.03-2.23l0.82-0.89h-5.18v-6.36h14.4v6.36h-7.73
			c1.1,0.46,2.38,1.25,3.05,1.75L374.59,34.17z M378.81,17.65h-11.09v-1.34h11.09V17.65z M378.38,27.21v-1.27h-10.06v1.27H378.38z
			 M378.38,29.75v-1.32h-10.06v1.32H378.38z M374.8,37.38h-1.87c-3.62,0-4.2-0.67-4.2-2.4v-2.57h2.06v2.57
			c0,0.55,0.1,0.74,2.23,0.74h1.68c1.94,0,1.94-0.48,2.04-2.06l1.82,0.26C378.33,36.57,377.8,37.38,374.8,37.38z M375.84,21.93
			c0.24-0.43,0.36-1.15,0.58-1.66h-6.19c0.26,0.5,0.36,1.22,0.46,1.66H375.84z M382.29,37.07c-0.7-1.18-2.59-3.19-4.06-4.32
			l1.63-0.98c1.49,1.08,3.43,2.98,4.25,4.15L382.29,37.07z"/>
		<path class="st0" d="M389.09,23.39l-1.27-1.68c1.78-1.13,4.22-3.34,5.28-5.06l2.18,0.72C393.87,19.48,391.35,21.85,389.09,23.39z
			 M393.19,37.62h-2.21V22.09h6.24v-6.41h2.23v6.41h6.19v12.91c0,1.15-0.29,1.92-1.13,2.26c-0.84,0.29-2.09,0.34-4.3,0.34
			l-0.14-2.06c1.03,0.05,2.4,0.05,2.81,0.05s0.55-0.24,0.55-0.6v-2.62h-10.25V37.62z M403.44,26.27v-2.16h-10.25v2.16H403.44z
			 M403.44,30.47v-2.33h-10.25v2.33H403.44z M407.04,23.13c-1.06-1.46-3.6-3.84-5.64-5.35l1.73-1.18c2.09,1.44,4.63,3.62,5.74,5.11
			L407.04,23.13z"/>
		<path class="st0" d="M416.79,37.62h-2.06V24.76c-0.6,0.91-1.32,1.9-1.94,2.62c-0.17-0.53-0.74-1.78-1.06-2.3
			c1.87-2.18,3.91-5.88,4.94-9.26l1.99,0.55c-0.29,0.89-0.65,1.82-1.06,2.74l-0.1,0.24c-0.22,0.53-0.48,1.08-0.72,1.58V37.62z
			 M424.16,37.67c-0.48,0-1.13,0-1.99-0.1V35.8c0.43,0.02,1.15,0.1,1.56,0.1c0.53,0,0.96-0.12,1.32-0.46
			c0.48-0.38,0.77-1.61,0.65-2.74c-1.9,1.51-4.63,3.41-7.01,4.32l-0.77-1.75c2.3-0.72,5.4-2.81,7.2-4.46
			c-0.1-0.53-0.19-0.84-0.43-1.15c-1.58,1.1-3.82,2.47-5.74,3.22l-0.65-1.54c1.63-0.48,4.06-1.82,5.57-2.93
			c-0.26-0.26-0.58-0.6-0.84-0.86c-1.3,0.77-2.64,1.44-4.15,1.97l-0.7-1.58c1.51-0.46,3.43-1.37,4.99-2.33h-4.1v-3.29l-0.24,0.22
			c-0.38-0.43-0.94-1.01-1.42-1.27c2.23-1.54,3.79-3.82,4.71-5.52l2.06,0.38c-0.17,0.34-0.41,0.7-0.62,1.03h3.94l0.41-0.12l1.3,0.91
			c-0.43,0.74-1.03,1.61-1.61,2.35h5.06v5.3h-4.56c0.26,1.03,0.62,2.23,1.01,3.14c0.34-0.26,0.67-0.53,1.03-0.82l0.19-0.17
			c0.62-0.5,1.22-1.01,1.63-1.42l1.51,1.25c-1.03,0.91-2.59,2.06-3.65,2.74c0.94,1.85,2.42,3.67,3.86,4.51l-1.22,1.85
			c-3.1-1.99-5.21-6.41-6.22-11.09h-0.5c-0.43,0.34-0.77,0.77-1.25,1.08c3.72,3.1,3.72,8.64,1.97,10.15
			C425.77,37.41,425.03,37.62,424.16,37.67z M424.76,24.13v-2.35h-3.7v2.35H424.76z M425.43,20.29c0.38-0.43,0.62-1.01,0.94-1.56
			h-3.91c-0.14,0.19-0.34,0.41-0.5,0.62l-0.14,0.19c-0.22,0.24-0.41,0.5-0.6,0.74H425.43z M430.57,24.13v-2.35h-3.98v2.35H430.57z"
			/>
		<path class="st0" d="M442.67,37.74h-2.04V24.13c-0.74,0.96-1.63,1.97-2.18,2.52l-1.54-1.85c2.38-2.23,4.85-5.86,6.1-9.17
			l2.02,0.67c-0.62,1.51-1.49,3.19-2.35,4.68V37.74z M444.49,37.82l-0.74-1.99c1.7-0.41,3.14-1.32,4.13-2.16
			c-1.22-0.98-2.35-2.45-3.14-3.84l1.75-0.55c0.62,1.03,1.58,2.14,2.64,2.9c0.58-0.94,0.94-2.3,1.06-3.38h-5.42v-6.65h5.52v-2.06
			h-5.93v-1.97h5.93v-2.28h2.02v2.28h6.58v1.97h-6.58v2.06h5.88v6.65h-6.03c-0.17,1.49-0.41,3.24-1.25,4.46
			c2.16,1.13,5.14,2.14,7.85,2.4l-0.5,2.06c-3.5-0.48-6.41-1.49-8.59-2.86C448.52,35.92,446.94,37.07,444.49,37.82z M450.27,27.01
			v-3.1h-3.55v3.1H450.27z M456.06,27.01v-3.1h-3.77v3.1H456.06z"/>
		<path class="st0" d="M464.47,37.82c-0.31-0.41-1.25-1.2-1.7-1.46c2.42-2.69,2.86-7.42,2.88-10.58v-8.5h16.97v17.55
			c0,1.22-0.34,2.02-1.15,2.33c-0.84,0.34-2.33,0.38-4.68,0.36l-0.14-2.06c1.01,0.05,2.42,0.05,3.02,0.05h0.17
			c0.41,0,0.62-0.26,0.62-0.7v-4.44h-5.54v7.01h-2.18v-7.01h-5.23C467.14,32.85,466.13,35.99,464.47,37.82z M472.73,28.29v-3.6
			h-4.94v0.98c0,0.77-0.05,1.78-0.12,2.62H472.73z M472.73,22.67v-3.34h-4.94v3.34H472.73z M480.46,22.67v-3.34h-5.54v3.34H480.46z
			 M480.46,28.29v-3.6h-5.54v3.6H480.46z"/>
		<path class="st0" d="M508.5,36.45h-20.81v-2.18h8.5V16.02h2.3v6.98h8.33v2.14h-8.33v9.12h10.01V36.45z"/>
		<path class="st0" d="M525.77,37.67h-0.31l-0.07-1.9c0.98,0.07,2.09,0.07,2.45,0.12c0.31,0,0.43-0.22,0.43-0.5v-3.02h-5.93
			c0.96,0.79,2.14,2.21,2.66,2.98l-1.68,1.15c-0.55-0.82-1.85-2.38-2.86-3.29l1.22-0.84h-3.31v-1.73h9.89v-1.42h-0.14l-0.38,0.02
			c-3.26,0.1-6.36,0.19-8.74,0.24l-0.17-1.66h0.19c1.63,0,3.74-0.02,5.98-0.07v-1.32h-5.28v-6.31H525v-1.15h-6.05v-1.42
			c-0.22,0.5-0.48,1.06-0.74,1.58l-0.1,0.22l-0.12,0.22c-0.02,0.02-0.05,0.05-0.05,0.1l-0.12,0.22c-0.26,0.48-0.53,0.96-0.79,1.42
			v16.3h-2.06V24.57c-0.65,0.84-1.44,1.78-1.87,2.26l-1.58-1.8c2.33-2.3,4.66-5.93,5.86-9.22l2.04,0.6
			c-0.12,0.31-0.26,0.65-0.41,0.96h6V15.9h1.94v1.46h6.43v1.61h-6.43v1.15h5.57v6.31h-1.44c0.98,0.84,2.18,1.99,2.74,2.69
			l-1.56,0.96c-0.19-0.26-0.5-0.65-0.79-0.96l-1.06,0.02v1.49h3.22v1.73h-3.22v3.1c0,1.01-0.29,1.68-1.06,1.92
			C528.65,37.65,527.45,37.67,525.77,37.67z M525,22.65V21.4h-3.31v1.25H525z M521.69,25.17l3.31,0.02v-1.32h-3.31v1.32V25.17z
			 M530.4,22.65V21.4h-3.46v1.25H530.4z M526.94,25.17l3.46,0.02v-1.32h-3.46v1.32V25.17z M526.94,27.73l3-0.1
			c-0.36-0.34-0.82-0.74-1.18-1.03l0.29-0.17h-2.11V27.73z"/>
	</g>
</g>
<path class="st2" d="M598.09,293.3H227.04c-17.96,0-32.51-14.56-32.51-32.51v0c0-17.96,14.56-32.51,32.51-32.51h371.05
	c17.96,0,32.51,14.56,32.51,32.51v0C630.6,278.75,616.05,293.3,598.09,293.3z"/>
<g>
	<path class="st1" d="M353.11,244.85h5.13l11.88,31.5h-5.4l-2.75-7.87h-12.6l-2.79,7.87h-5.31L353.11,244.85z M360.49,264.24
		l-1.85-5.22c-1.12-3.15-2.07-6.07-2.97-8.77h-0.04c-0.9,2.7-1.84,5.62-2.97,8.86l-1.8,5.13H360.49z"/>
	<path class="st1" d="M369.35,260.55c0-9.72,5.8-16.42,15.48-16.42c8.95,0,14.17,5.76,14.49,12.78h-5.22
		c-0.13-4.72-3.74-8.5-9.27-8.5c-6.25,0-10.12,4.77-10.12,12.15c0,7.74,4.41,12.24,10.21,12.24c5.67,0,9-4.23,9.58-7.88h-10.12
		v-4.18h12.55c1.57,0,2.47,0.9,2.47,2.38v13.23h-4.68l0.85-6.21h-0.09c-1.98,4.41-5.76,6.93-11.25,6.93
		C375.61,277.07,369.35,270.59,369.35,260.55z"/>
	<path class="st1" d="M403.99,244.85h12.69c7.2,0,11.29,3.46,11.29,8.59c0,4.1-2.56,7.07-7.2,7.96v0.09
		c3.78,1.44,5.22,4.28,6.34,8.33l1.8,6.52h-5.22l-1.44-5.49c-1.44-5.71-3.06-7.16-8.14-7.16h-5.04v12.64h-5.08V244.85z
		 M414.52,259.47c5.4,0,8.19-1.89,8.19-5.4c0-3.11-2.25-4.95-6.52-4.95h-7.11v10.35H414.52z"/>
	<path class="st1" d="M431.75,244.85h22v4.18h-16.88v9.4H452v4.18h-15.12v9.54h16.92v4.18h-22.05V244.85z"/>
	<path class="st1" d="M456.66,244.85h22v4.18h-16.88v9.4h15.12v4.18h-15.12v9.54h16.92v4.18h-22.05V244.85z"/>
</g>
</svg>
