<?xml version="1.0" encoding="utf-8"?>
<!-- Generator: Adobe Illustrator 27.4.1, SVG Export Plug-In . SVG Version: 6.00 Build 0)  -->
<svg version="1.1" id="Layer_1" xmlns="http://www.w3.org/2000/svg" xmlns:xlink="http://www.w3.org/1999/xlink" x="0px" y="0px"
	 viewBox="0 0 828 220" style="enable-background:new 0 0 828 220;" xml:space="preserve">
<style type="text/css">
	.st0{fill:#CBC8CD;}
	.st1{fill:#CACACA;}
	.st2{fill:none;stroke:#CBC8CD;stroke-width:3;stroke-miterlimit:10;}
</style>
<g>
	<g>
		<path class="st0" d="M212.25,205.25v-14.51h3.88v14.36c0,3.07,2.17,4.5,4.93,4.5c2.73,0,4.96-1.43,4.96-4.5v-14.36h3.88v14.51
			c0,4.93-3.07,7.56-8.84,7.56C215.29,212.82,212.25,210.18,212.25,205.25z"/>
		<path class="st0" d="M233.48,212.45v-21.71h7.72c4,0,8.87,0.65,8.87,6.73c0,6.02-4.84,6.67-8.9,6.67h-3.81v8.31H233.48z
			 M237.36,201.04h3.75c2.54,0,5.08-0.16,5.08-3.57c0-3.53-2.54-3.6-5.05-3.6h-3.78V201.04z"/>
		<path class="st0" d="M251.93,212.45v-21.71h3.84v18.42h10.88v3.29H251.93z"/>
		<path class="st0" d="M266.79,201.59c0-6.57,3.81-11.22,10.64-11.22c6.76,0,10.63,4.68,10.63,11.22c0,6.64-3.88,11.22-10.63,11.22
			C270.69,212.82,266.79,208.82,266.79,201.59z M282.38,207.52c1.05-1.43,1.55-3.5,1.55-5.92c0-2.48-0.56-4.56-1.55-5.92
			c-1.05-1.46-2.7-2.17-4.84-2.17c-2.33,0-4.06,0.81-5.05,2.08c-0.99,1.27-1.58,3.57-1.58,6.01c0,2.64,0.59,4.71,1.46,5.89
			c1.12,1.49,2.95,2.2,5.05,2.2C279.69,209.69,281.36,208.97,282.38,207.52z"/>
		<path class="st0" d="M304.08,212.45l-2.02-5.71h-8.46l-1.95,5.71h-4.12l8.34-21.71h4.03l8.28,21.71H304.08z M294.75,203.49h6.17
			l-1.83-5.24c-0.4-1.15-0.93-2.64-1.27-3.94h-0.03c-0.4,1.52-0.78,2.57-1.24,3.94L294.75,203.49z"/>
		<path class="st0" d="M309.73,212.45v-21.71h7.72c6.82,0,10.67,4.31,10.67,10.85c0,6.79-4.03,10.85-10.67,10.85H309.73z
			 M313.61,209.32h3.53c2.54,0,4.37-0.74,5.43-2.14c1.02-1.4,1.43-3.19,1.43-5.58c0-2.42-0.31-4-1.36-5.55
			c-1.05-1.55-3.04-2.17-5.49-2.17h-3.53V209.32z"/>
		<path class="st0" d="M342.44,212.45v-9.12l-7.63-12.59h4.43l3.01,5.36c0.34,0.59,1.36,2.57,2.14,4.09
			c0.81-1.49,1.52-2.95,2.17-4.09l3.04-5.36h4.37l-7.66,12.59v9.12H342.44z"/>
		<path class="st0" d="M353,201.59c0-6.57,3.81-11.22,10.63-11.22c6.76,0,10.64,4.68,10.64,11.22c0,6.64-3.88,11.22-10.64,11.22
			C356.91,212.82,353,208.82,353,201.59z M368.6,207.52c1.05-1.43,1.55-3.5,1.55-5.92c0-2.48-0.56-4.56-1.55-5.92
			c-1.05-1.46-2.7-2.17-4.84-2.17c-2.33,0-4.06,0.81-5.05,2.08c-0.99,1.27-1.58,3.57-1.58,6.01c0,2.64,0.59,4.71,1.46,5.89
			c1.12,1.49,2.95,2.2,5.05,2.2C365.9,209.69,367.58,208.97,368.6,207.52z"/>
		<path class="st0" d="M376.64,205.25v-14.51h3.88v14.36c0,3.07,2.17,4.5,4.93,4.5c2.73,0,4.96-1.43,4.96-4.5v-14.36h3.88v14.51
			c0,4.93-3.07,7.56-8.84,7.56C379.68,212.82,376.64,210.18,376.64,205.25z"/>
		<path class="st0" d="M415.21,212.35l-0.03,0.09h-4.19c-0.68-1.12-0.87-2.11-0.87-4.96c0-2.61-1.21-3.6-4.25-3.6h-4.12v8.56h-3.88
			v-21.71h7.97c4.31,0,8.65,0.78,8.65,6.48c0,2.67-1.4,4.53-3.41,5.33c2.08,0.81,2.88,2.36,2.88,4.68
			C413.97,209.56,414.18,210.99,415.21,212.35z M405.59,200.79c2.6,0,5.08-0.31,5.08-3.41c0-3.35-2.48-3.5-5.05-3.5h-3.88v6.92
			H405.59z"/>
		<path class="st0" d="M423.88,212.45v-21.71h14.73v3.22h-10.88v5.92h9.74v3.19h-9.74v9.36H423.88z"/>
		<path class="st0" d="M440.36,205.25v-14.51h3.88v14.36c0,3.07,2.17,4.5,4.93,4.5c2.73,0,4.96-1.43,4.96-4.5v-14.36H458v14.51
			c0,4.93-3.07,7.56-8.84,7.56C443.4,212.82,440.36,210.18,440.36,205.25z"/>
		<path class="st0" d="M466.58,212.45v-18.42h-7.04v-3.29h17.98v3.29h-7.07v18.42H466.58z"/>
		<path class="st0" d="M479.07,205.25v-14.51h3.88v14.36c0,3.07,2.17,4.5,4.93,4.5c2.73,0,4.96-1.43,4.96-4.5v-14.36h3.88v14.51
			c0,4.93-3.07,7.56-8.84,7.56C482.11,212.82,479.07,210.18,479.07,205.25z"/>
		<path class="st0" d="M517.63,212.35l-0.03,0.09h-4.19c-0.68-1.12-0.87-2.11-0.87-4.96c0-2.61-1.21-3.6-4.25-3.6h-4.12v8.56h-3.88
			v-21.71h7.97c4.31,0,8.65,0.78,8.65,6.48c0,2.67-1.39,4.53-3.41,5.33c2.08,0.81,2.88,2.36,2.88,4.68
			C516.39,209.56,516.61,210.99,517.63,212.35z M508.02,200.79c2.6,0,5.08-0.31,5.08-3.41c0-3.35-2.48-3.5-5.05-3.5h-3.88v6.92
			H508.02z"/>
		<path class="st0" d="M520.09,212.45v-21.71h14.73v3.22h-10.85v5.92h9.7v3.19h-9.7v6.14h10.85v3.22H520.09z"/>
		<path class="st0" d="M543.81,212.45v-21.71h3.84v18.42h10.88v3.29H543.81z"/>
		<path class="st0" d="M560.18,212.45v-21.71h3.88v21.71H560.18z"/>
		<path class="st0" d="M567.72,212.45v-21.71h14.73v3.22h-10.88v5.92h9.74v3.19h-9.74v9.36H567.72z"/>
		<path class="st0" d="M584.29,212.45v-21.71h14.73v3.22h-10.85v5.92h9.7v3.19h-9.7v6.14h10.85v3.22H584.29z"/>
	</g>
</g>
<g>
	<g>
		<path class="st0" d="M326.83,174.29h-20.81v-2.18h8.5v-18.24h2.3v6.98h8.33v2.14h-8.33v9.12h10.01V174.29z"/>
		<path class="st0" d="M344.09,175.51h-0.31l-0.07-1.9c0.98,0.07,2.09,0.07,2.45,0.12c0.31,0,0.43-0.22,0.43-0.5v-3.02h-5.93
			c0.96,0.79,2.14,2.21,2.66,2.98l-1.68,1.15c-0.55-0.82-1.85-2.38-2.86-3.29l1.22-0.84h-3.31v-1.73h9.89v-1.42h-0.14l-0.38,0.02
			c-3.26,0.1-6.36,0.19-8.74,0.24l-0.17-1.66h0.19c1.63,0,3.74-0.02,5.98-0.07v-1.32h-5.28v-6.31h5.28v-1.15h-6.05v-1.42
			c-0.22,0.5-0.48,1.06-0.74,1.58l-0.1,0.22l-0.12,0.22c-0.02,0.02-0.05,0.05-0.05,0.1l-0.12,0.22c-0.26,0.48-0.53,0.96-0.79,1.42
			v16.3h-2.06v-13.03c-0.65,0.84-1.44,1.78-1.87,2.26l-1.58-1.8c2.33-2.3,4.66-5.93,5.86-9.22l2.04,0.6
			c-0.12,0.31-0.26,0.65-0.41,0.96h6v-1.46h1.94v1.46h6.43v1.61h-6.43v1.15h5.57v6.31h-1.44c0.98,0.84,2.18,1.99,2.74,2.69
			l-1.56,0.96c-0.19-0.26-0.5-0.65-0.79-0.96l-1.06,0.02v1.49h3.22v1.73h-3.22v3.1c0,1.01-0.29,1.68-1.06,1.92
			C346.98,175.49,345.78,175.51,344.09,175.51z M343.33,160.49v-1.25h-3.31v1.25H343.33z M340.01,163.01l3.31,0.02v-1.32h-3.31v1.32
			V163.01z M348.73,160.49v-1.25h-3.46v1.25H348.73z M345.27,163.01l3.46,0.02v-1.32h-3.46v1.32V163.01z M345.27,165.58l3-0.1
			c-0.36-0.34-0.82-0.74-1.18-1.03l0.29-0.17h-2.11V165.58z"/>
		<path class="st0" d="M360.63,175.47h-2.06v-13.06c-0.65,0.86-1.44,1.78-1.87,2.26l-1.58-1.78c2.33-2.3,4.63-5.93,5.86-9.22
			l2.04,0.6c-0.62,1.61-1.51,3.34-2.38,4.87V175.47z M366.58,175.51l-0.17-2.16c0.7,0.02,1.75,0.02,2.04,0
			c0.31,0,0.31-0.14,0.31-0.48v-13.01h-3.05l-0.12,0.22c-0.62,1.37-1.25,2.71-1.94,3.65l-1.78-1.42c1.68-1.97,2.95-5.47,3.72-8.64
			l2.11,0.46c-0.31,1.25-0.74,2.57-1.2,3.74h8.79l0.41-0.07l1.51,0.31c-0.29,1.75-0.79,3.89-1.08,5.16l-1.82-0.36
			c0.14-0.6,0.29-1.51,0.41-2.4l0.02-0.26c0.02-0.14,0.05-0.26,0.05-0.38h-3.94v13.01c0,1.08-0.07,1.85-0.77,2.21
			C369.42,175.42,368.31,175.51,366.58,175.51z M363.87,172.25l-1.63-1.2c1.32-1.66,2.28-4.7,2.83-7.3l2.11,0.38
			C366.51,167.04,365.21,170.4,363.87,172.25z M374.89,172.18c-0.31-2.02-1.51-5.66-2.69-8.02l1.97-0.62
			c1.22,2.33,2.47,5.86,2.83,7.9L374.89,172.18z"/>
		<path class="st0" d="M394.15,175.35l-0.07-2.02c1.03,0.07,2.35,0.14,2.86,0.14c0.46,0,0.77-0.14,1.06-0.46
			c0.7-0.77,1.22-5.06,1.56-13.56h-6.48c-0.7,1.42-1.66,2.9-2.52,3.91c-0.19-0.17-0.48-0.46-0.79-0.72v9.41h-7.9v-14.64h2.45
			c0.38-1.13,0.86-2.76,1.03-3.89l2.42,0.41c-0.41,1.13-0.96,2.47-1.37,3.48h3.36v3.24c1.37-1.85,2.54-4.61,3.19-7.18l2.14,0.48
			c-0.29,1.15-0.72,2.4-1.15,3.5h7.73c0,0,0,0.74-0.02,1.03c-0.41,10.08-0.89,14.64-1.82,15.77c-0.55,0.74-1.13,1.01-1.97,1.1
			C397.08,175.47,395.68,175.44,394.15,175.35z M387.81,163.34v-4.03h-3.91v4.03H387.81z M387.81,170.09v-4.82h-3.91v4.82H387.81z
			 M397.68,166.37h-6.53v-1.9h6.53V166.37z"/>
		<path class="st0" d="M417.43,175.47h-2.3v-8.45c-2.16,2.78-5.23,5.74-8.26,7.27l-1.18-2.04c2.83-1.25,6.29-4.42,8.28-7.13h-7.8
			v-2.14h8.95v-3.67h-7.22v-2.11h7.22v-3.65h2.3v3.65h7.42v2.11h-7.42v3.67h9.12v2.14h-7.99c2.02,2.71,5.5,5.9,8.33,7.13l-1.15,2.06
			c-3.05-1.54-6.14-4.58-8.3-7.37V175.47z"/>
		<path class="st0" d="M442.7,175.47h-2.3v-7.7c-2.16,2.64-5.16,5.4-8.21,6.82l-1.08-2.09c3.36-1.34,7.3-4.97,9.29-8.14v-5.67h-8.64
			v-2.06h8.64v-3.07h2.3v3.07h8.93v2.06h-8.93v5.54c0.19,0.41,0.43,0.74,0.65,1.06c1.56-1.34,2.54-3.84,3.05-6.19l2.09,0.41
			c-0.19,0.89-0.48,1.85-0.82,2.64c0.46,0.34,0.98,0.74,1.49,1.15l0.22,0.17c0.96,0.79,1.9,1.58,2.45,2.11l-1.56,1.49
			c-0.7-0.77-2.21-2.06-3.43-3.1c-0.53,0.91-1.2,1.82-1.85,2.45c-0.36-0.29-1.06-0.79-1.58-1.06c2.06,2.83,5.64,5.86,8.74,7.01
			L451,174.6c-3.17-1.42-6.17-4.22-8.3-6.91V175.47z M433.05,167.69l-1.42-1.61c1.87-1.44,3.48-4.13,4.15-6.98l2.06,0.43
			c-0.22,0.91-0.53,1.85-0.86,2.67c0.91,0.77,1.94,1.78,2.5,2.35l-1.46,1.54c-0.41-0.5-1.18-1.32-1.92-2.02
			C435.35,165.41,434.23,166.71,433.05,167.69z"/>
		<path class="st0" d="M476.93,159.17h-20.71v-1.94h5.4c-0.41-0.82-1.3-2.02-1.99-2.83l2.04-0.72c0.86,0.91,1.87,2.26,2.28,3.12
			l-1.2,0.43h7.34l-0.82-0.36c0.72-0.89,1.54-2.35,2.04-3.36l2.35,0.74c-0.22,0.29-0.43,0.6-0.67,0.89l-0.14,0.19
			c-0.53,0.7-1.08,1.37-1.54,1.9h5.62V159.17z M461.74,175.51l-0.14-1.85c0.72,0.05,1.56,0.05,1.85,0.05s0.41-0.19,0.41-0.5v-7.13
			l-0.77,1.25c-0.62-0.55-2.14-1.37-3.22-1.82l1.03-1.2c1.06,0.38,2.28,1.1,2.95,1.66v-3.02h-4.01v6.17l0.89-1.06
			c1.15,0.46,2.42,1.32,3.1,1.94l-0.86,1.3c-0.65-0.6-1.99-1.46-3.12-1.97v6.17h-2.06v-14.38h8.18v12.12c0,0.98-0.26,1.63-0.91,1.92
			C464.35,175.49,463.46,175.51,461.74,175.51z M470.21,171.03h-2.04v-9.67h2.04V171.03z M470.09,175.51l-0.14-2.04
			c0.67,0.02,1.56,0.05,2.14,0.05h0.19c0.12,0,0.22,0,0.29,0c0.36,0,0.53-0.19,0.53-0.55v-12.31h2.11v12.31
			c0,1.13-0.26,1.85-1.06,2.18C473.4,175.49,472.08,175.54,470.09,175.51z"/>
		<path class="st0" d="M481.96,175.3c-0.31-0.46-1.2-1.22-1.7-1.46c1.42-2.78,1.7-7.25,1.73-10.15v-8.23l1.25,0.36
			c2.14-0.5,4.51-1.27,5.93-1.94l1.75,1.58c-1.9,0.82-4.49,1.56-6.82,2.04v1.75h6.62v7.63h-6.7
			C483.83,169.49,483.21,173.09,481.96,175.3z M488.63,164.93v-3.74h-4.54v2.71c0,0.12,0,0.24,0,0.36v0.22c0,0.17,0,0.31,0,0.46
			H488.63z M499.62,175.49h-2.18v-12h-3.29c-0.14,3.48-1.06,8.83-4.08,11.98c-0.29-0.46-1.08-1.27-1.61-1.51
			c3.12-3.26,3.58-8.52,3.58-11.93v-6.31l1.66,0.38c2.23-0.6,4.66-1.49,6.05-2.28l1.94,1.58c-2.04,1.01-4.97,1.9-7.51,2.52v3.5h7.85
			v2.06h-2.4V175.49z"/>
	</g>
</g>
<g>
	<path class="st0" d="M397.28,111.14l0.73-84.87l-3.45-0.73c-1.96,4.56-4.31,8.59-6.99,11.98c-4.13,5.22-8.99,9.13-14.44,11.62
		c-4.99,2.28-10.56,3.53-16.56,3.74v-9.93c6.45-0.29,12.66-2.14,18.49-5.51c6.34-3.67,11.65-8.79,15.79-15.21
		c3.86-5.99,6.36-12.73,7.45-20.08h8.99c1.09,7.35,3.59,14.1,7.44,20.08c4.14,6.42,9.45,11.54,15.79,15.21
		c5.83,3.37,12.04,5.22,18.49,5.51v9.93c-6.01-0.21-11.57-1.46-16.56-3.74c-5.46-2.49-10.32-6.4-14.44-11.62
		c-2.68-3.39-5.03-7.42-6.99-11.98l-3.45,0.73l0.73,84.88H397.28z"/>
</g>
</svg>
